<svg width="78" height="42" viewBox="0 0 78 42" fill="none" xmlns="http://www.w3.org/2000/svg">
<g clip-path="url(#clip0_316:4672)">
<path d="M77.5748 0.564988C77.4517 1.13206 77.3216 1.69733 77.2056 2.2644C76.5232 5.64793 75.8419 9.03028 75.1617 12.4114C74.4983 15.7111 73.8341 19.0102 73.1695 22.3086C73.066 22.8261 72.9591 23.3418 72.852 23.8663H67.0075C67.2429 22.9112 67.4747 21.979 67.7101 21.031C67.5318 20.992 67.3874 20.9476 67.2554 21.1355C66.155 22.702 64.5979 23.5774 62.7645 24.0187C61.9951 24.2079 61.2017 24.2832 60.4102 24.242C59.0137 24.164 58.0542 23.4286 57.4068 22.2431C56.9114 21.3309 56.7238 20.2849 56.8717 19.2589C57.4531 14.7595 59.6844 11.233 63.3905 8.62627C64.4566 7.87594 65.6919 7.39759 66.9879 7.23338C67.9647 7.13205 68.9515 7.18229 69.9128 7.38225L70.2695 7.44074C70.3819 6.89848 70.4925 6.37748 70.5995 5.84585C70.9455 4.13046 71.2951 2.41507 71.6321 0.706765C71.6696 0.515378 71.7463 0.481706 71.9193 0.483479C73.7028 0.483479 75.4863 0.483479 77.2698 0.483479C77.3733 0.483479 77.4767 0.48347 77.5801 0.474609L77.5748 0.564988Z" fill="white"/>
<path d="M33.0045 41.591C32.6746 41.5573 32.3446 41.5201 32.0146 41.4917C28.5582 41.2089 25.3052 39.7521 22.8028 37.3663C20.316 35.075 18.6291 32.0556 17.9873 28.7468C17.9805 28.701 17.9769 28.6548 17.9766 28.6086C18.0166 28.5848 18.0616 28.5705 18.1081 28.5668C18.1545 28.5631 18.2012 28.57 18.2445 28.5872C18.2878 28.6043 18.3266 28.6311 18.3577 28.6656C18.3889 28.7 18.4117 28.7412 18.4243 28.7858C20.5431 32.9803 23.9229 35.6066 28.5154 36.6698C31.0427 37.2546 33.5645 37.0243 36.0561 36.4111C38.9723 35.7263 41.7082 34.4323 44.082 32.6152C44.4815 32.3051 44.8542 31.9631 45.2715 31.6069L41.3193 28.5784H53.128C52.2773 32.8049 51.4372 36.9941 50.5954 41.1834H50.5455L48.8154 36.3048L48.2393 36.7655C45.4146 39.0348 42.0536 40.5499 38.4746 41.1674C37.4366 41.3446 36.3772 41.4191 35.3267 41.5431C35.2446 41.552 35.1626 41.575 35.0806 41.591H33.0045Z" fill="white"/>
<path d="M50.3494 7.08105C51.9349 7.08105 53.4527 7.36281 54.8296 8.17797C56.6595 9.25896 57.4602 10.8716 57.3693 12.9822C57.1909 17.143 53.9948 22.0198 49.133 23.6697C48.0729 24.0282 46.9637 24.2225 45.8442 24.2456C44.3317 24.281 42.8764 24.0383 41.5245 23.3489C39.4093 22.2733 38.398 20.5029 38.6459 18.1425C39.0846 13.9692 41.1428 10.7599 44.733 8.57315C46.4184 7.53824 48.3251 7.08283 50.3494 7.08105Z" fill="white"/>
<path d="M31.7491 7.06506C33.3347 7.08101 34.8507 7.36988 36.2258 8.18504C38.0254 9.2483 38.8511 10.8432 38.744 12.929C38.6103 15.5251 37.6008 17.781 35.9832 19.7817C34.3067 21.8532 32.1968 23.301 29.5732 23.9372C27.4651 24.4476 25.373 24.3998 23.3487 23.5545C21.9219 22.959 20.8197 22.0092 20.2757 20.5188C19.9671 19.6157 19.8893 18.6505 20.0492 17.7101C20.4724 14.465 22.1566 11.5131 24.7417 9.48574C26.4092 8.13735 28.4474 7.32025 30.5898 7.14125C30.9751 7.10581 31.3621 7.08987 31.7491 7.06506Z" fill="white"/>
<path d="M18.4119 7.44784H22.7156C22.5461 8.27541 22.3838 9.06933 22.2197 9.86146C22.1787 10.0635 22.1163 10.2602 22.0949 10.464C22.0735 10.6678 21.9896 10.7156 21.7952 10.7139C20.5378 10.7139 19.2804 10.7138 18.0213 10.705C17.793 10.705 17.7199 10.7723 17.6771 10.9938C16.8448 15.1925 16.0024 19.3865 15.1499 23.5757C14.8384 25.1245 14.5285 26.6734 14.2206 28.2222C14.1778 28.4349 14.1064 28.5288 13.8639 28.527C12.1071 28.5146 10.3486 28.527 8.59187 28.527H8.26904C9.464 22.5745 10.6518 16.6681 11.8468 10.7156H9.82779C10.0454 9.60098 10.2541 8.53237 10.4646 7.45139C11.0603 7.45139 11.6274 7.43898 12.1945 7.45139C12.2412 7.46108 12.2894 7.46087 12.336 7.45078C12.3825 7.4407 12.4265 7.42099 12.4648 7.3929C12.5032 7.3648 12.5352 7.32894 12.5587 7.28772C12.5822 7.2465 12.5967 7.20084 12.6012 7.15369C13.1577 5.22387 14.1083 3.52444 15.6635 2.20245C16.9828 1.08517 18.6095 0.38751 20.3327 0.199971C22.1687 -0.0186854 24.0307 0.177585 25.7796 0.77413C25.8349 0.791851 25.8902 0.816645 25.9579 0.846771C25.7368 1.98977 25.5174 3.12571 25.3034 4.22972C24.6667 4.07201 24.055 3.88593 23.4361 3.77428C22.5813 3.60345 21.704 3.57292 20.8393 3.6839C20.505 3.72732 20.1845 3.84397 19.901 4.02539C19.6176 4.20681 19.3783 4.44851 19.2002 4.73302C18.8364 5.28946 18.4065 6.74786 18.4119 7.44784Z" fill="white"/>
<path d="M0.0327148 23.8593C0.296676 22.5373 0.560074 21.2206 0.822845 19.9093C1.48631 16.6013 2.15036 13.2934 2.81502 9.9855C2.97019 9.20755 3.1289 8.42783 3.2805 7.64811C3.30725 7.51343 3.35185 7.44434 3.51058 7.44434C5.36366 7.44434 7.21498 7.44434 9.06805 7.44434C9.11531 7.44772 9.16235 7.45361 9.20896 7.46203C8.99494 8.53238 8.78145 9.59564 8.56862 10.6518L6.72806 19.8207C6.47123 21.1019 6.21082 22.3831 5.95935 23.6643C5.93081 23.8079 5.88265 23.8699 5.72927 23.8681C3.8756 23.8681 2.02308 23.8681 0.171791 23.8681C0.125261 23.8687 0.0787963 23.8657 0.0327148 23.8593Z" fill="white"/>
<path d="M3.8584 4.81097L4.79118 0.127319H10.6768C10.5983 0.540219 10.5234 0.93891 10.4431 1.33586C10.2256 2.4257 9.99906 3.51203 9.7886 4.60187C9.7565 4.7649 9.70835 4.83576 9.52821 4.83576C7.69476 4.83576 5.85945 4.83576 4.02421 4.83576C3.96844 4.83107 3.91309 4.8228 3.8584 4.81097Z" fill="white"/>
</g>
<defs>
<clipPath id="clip0_316:4672">
<rect width="77.5421" height="41.476" fill="white" transform="translate(0.0327148 0.114868)"/>
</clipPath>
</defs>
</svg>
