<svg width="93" height="24" viewBox="0 0 93 24" fill="none" xmlns="http://www.w3.org/2000/svg">
<g clip-path="url(#clip0_316:4560)">
<path d="M47.7176 12.345C47.9154 11.7912 48.0359 11.4774 48.1319 11.1617C48.983 8.36323 49.8266 5.56098 50.6815 2.76432C51.1372 1.2783 52.0843 0.60457 53.6641 0.60457C55.1705 0.60457 56.1365 1.28019 56.5903 2.72006C58.3264 8.24324 60.053 13.7695 61.7703 19.2988C62.4275 21.418 61.2054 23.1754 59.1774 23.0812C58.0476 23.0277 57.2116 22.3761 56.8143 21.1577C55.886 18.3186 54.9841 15.4702 54.0727 12.6255C53.9771 12.262 53.7987 11.9244 53.5511 11.638C53.4438 11.9241 53.3213 12.2047 53.231 12.4945C52.3629 15.2893 51.5062 18.086 50.6325 20.8771C50.1297 22.4813 49.3144 23.0831 47.7158 23.0923C46.0833 23.0923 45.2678 22.5256 44.7651 20.9325C43.8989 18.2023 43.0611 15.4647 42.2081 12.7289C42.1075 12.3253 41.9033 11.9536 41.6149 11.6491C41.1579 13.1037 40.7004 14.5583 40.2422 16.0129C39.7658 17.5414 39.3008 19.0736 38.815 20.6002C38.2934 22.2432 37.4497 22.8653 35.7268 22.869C32.3694 22.869 29.014 22.8874 25.6566 22.8579C24.2048 22.8449 23.1693 21.8333 23.0525 20.4433C23.0051 19.8391 23.1802 19.2383 23.5461 18.7499C23.912 18.2615 24.4443 17.9179 25.0466 17.7814C25.448 17.7123 25.8556 17.6839 26.263 17.6965C28.3644 17.6873 30.4657 17.6965 32.569 17.6965C33.9154 17.6965 34.1225 17.5526 34.5179 16.3065C35.9377 11.8159 37.3544 7.32396 38.7679 2.83084C39.3121 1.10853 40.5981 0.338716 42.3643 0.663609C43.5223 0.877743 44.2473 1.55154 44.5956 2.65913C45.4844 5.51117 46.3921 8.35769 47.2959 11.2042C47.3938 11.4996 47.518 11.8005 47.7176 12.345Z" fill="white"/>
<path d="M30.9591 6.05629C29.7991 6.05629 28.6374 6.07844 27.4775 6.05629C26.5831 6.03229 26.0991 6.42553 25.8486 7.25807C25.0841 9.79199 24.297 12.3203 23.4874 14.8432C22.1335 19.0539 19.3016 21.8339 14.901 22.8068C10.5853 23.7593 6.8042 22.5594 3.80461 19.3474C-0.00653946 15.2677 -0.0950469 8.99883 3.51463 4.71245C7.1243 0.42608 13.4492 -0.629843 18.2565 2.1982C19.6311 3.00674 20.0792 4.55184 19.3166 5.85141C18.554 7.15098 17.0815 7.47955 15.6523 6.71347C12.8034 5.18684 9.6042 5.69632 7.62519 7.99088C6.7008 9.05664 6.18711 10.4066 6.17369 11.8055C6.16027 13.2044 6.64795 14.5636 7.55172 15.6462C9.03175 17.4387 11.0013 18.2103 13.3155 17.8429C15.7879 17.4516 17.4581 15.9969 18.2339 13.6636C19.375 10.2134 20.4332 6.73749 21.531 3.27442C22.1279 1.39152 22.8001 0.874647 24.7792 0.874647C28.0103 0.861725 31.2415 0.841419 34.4727 0.874647C36.5704 0.902337 37.8037 2.41789 37.2633 4.19742C36.9243 5.30501 35.9621 6.01386 34.6271 6.0434C33.405 6.07847 32.1793 6.0434 30.9572 6.0434L30.9591 6.05629Z" fill="white"/>
<path d="M86.8159 14.5086C85.398 14.5086 84.0931 14.5086 82.7882 14.5086C82.1929 14.5238 81.5972 14.501 81.005 14.4403C80.3429 14.365 79.7353 14.0447 79.3061 13.5448C78.877 13.0448 78.6589 12.403 78.6965 11.7507C78.6999 11.0951 78.9663 10.4673 79.4381 10.0027C79.9098 9.5381 80.5491 9.2741 81.2178 9.2678C82.9388 9.20319 84.6655 9.24018 86.3903 9.23833C87.6444 9.23833 88.9003 9.21065 90.1563 9.25311C91.8208 9.30665 92.8207 10.3422 92.8452 11.963C92.93 17.5378 88.2902 22.5405 82.5622 23.0499C76.5122 23.589 70.9932 19.5906 70.0649 13.9345C69.3117 9.37123 70.771 5.56109 74.5841 2.83273C78.318 0.157901 82.3984 -0.102383 86.5824 1.86359C88.2676 2.65552 88.8532 4.11938 88.1283 5.55556C87.4241 6.94558 85.9403 7.32773 84.2644 6.55057C80.875 4.97963 77.2786 6.15735 75.7477 9.33982C75.0957 10.7394 75.0102 12.3296 75.5083 13.7887C76.0064 15.2478 77.051 16.467 78.4309 17.2C81.3119 18.699 84.948 17.7538 86.5994 15.0587C86.6831 14.8799 86.7554 14.6962 86.8159 14.5086Z" fill="white"/>
<path d="M63.2333 11.8558C63.2333 8.99825 63.2108 6.14257 63.2428 3.28499C63.2299 2.66271 63.4457 2.05666 63.8509 1.57746C64.256 1.09826 64.8235 0.777837 65.4496 0.674746C66.5963 0.443998 67.8674 1.02544 68.3193 2.10349C68.5251 2.64771 68.6241 3.22523 68.6111 3.80553C68.6318 9.15888 68.6243 14.4956 68.6243 19.8397C68.6243 19.9634 68.6243 20.0871 68.6243 20.2089C68.5508 22.0069 67.5171 23.0942 65.8959 23.0795C64.2746 23.0647 63.2446 21.9294 63.2352 20.148C63.2202 17.379 63.2352 14.6193 63.2352 11.8558H63.2333Z" fill="white"/>
<path d="M30.255 9.4395C30.9423 9.4395 31.6352 9.40069 32.3263 9.44869C32.9457 9.48121 33.5271 9.751 33.9456 10.1999C34.364 10.6488 34.5859 11.2408 34.5632 11.8485C34.5632 13.1 33.5916 14.2483 32.3545 14.3055C30.9797 14.3843 29.6013 14.38 28.227 14.2926C26.7545 14.1892 25.8149 13.1056 25.8883 11.7968C25.9674 10.3994 26.971 9.47826 28.4774 9.4358C29.0724 9.42103 29.6674 9.4358 30.2625 9.4358L30.255 9.4395Z" fill="white"/>
</g>
<defs>
<clipPath id="clip0_316:4560">
<rect width="91.9685" height="22.5413" fill="white" transform="translate(0.874756 0.575073)"/>
</clipPath>
</defs>
</svg>
