<svg width="59" height="59" viewBox="0 0 59 59" fill="none" xmlns="http://www.w3.org/2000/svg">
<path d="M58.6049 29.0763C58.6812 47.58 42.9331 58.7516 29.4932 58.6114C11.624 58.4194 -0.595476 43.7527 0.0221431 28.0598C0.565943 14.2251 11.9267 -0.522742 30.4577 0.0211954C47.3573 0.510985 58.851 15.0201 58.6049 29.0763ZM31.7103 16.3344C31.789 16.8266 31.8087 17.0728 31.8702 17.3016C33.3072 22.8075 34.7663 28.3108 36.1738 33.8265C36.3731 34.6067 36.6807 34.9217 37.505 34.8725C38.3293 34.8233 38.9543 34.939 39.2397 33.8437C40.1304 30.4374 41.1591 27.0679 42.1384 23.6861C42.2688 23.2382 42.4239 22.7976 42.6699 22.0297C43.8609 26.1203 44.9902 29.8368 46.0064 33.5976C46.2869 34.6387 46.7569 34.8726 47.7805 34.9119C48.9321 34.9562 49.0281 34.272 49.225 33.5114C49.9632 30.6982 50.7014 27.8851 51.4273 25.0718C52.1532 22.2586 52.9037 19.3839 53.6813 16.3639C53.1542 16.3951 52.6256 16.391 52.099 16.3516C51.0508 16.1941 50.5931 16.5633 50.3618 17.6511C49.7368 20.6046 48.9641 23.5582 48.2456 26.492C48.0365 27.351 47.8053 28.2149 47.5863 29.0615C46.287 25.2023 45.1748 21.3652 44.1414 17.5084C43.9125 16.6593 43.605 16.327 42.665 16.3221C41.725 16.3172 41.3977 16.6888 41.1762 17.5157C40.2166 21.0723 39.2077 24.6165 38.2087 28.1631C38.1201 28.4782 37.9947 28.7834 37.8102 29.3175C37.6453 28.7022 37.5444 28.3502 37.4583 27.9933C36.5946 24.4516 35.7088 20.9172 34.8894 17.3656C34.7048 16.5707 34.3603 16.2532 33.5581 16.3344C32.9873 16.3812 32.4189 16.3344 31.7103 16.3344ZM16.6068 25.3573C18.6688 23.6172 19.2864 21.7762 18.5753 19.6767C17.8642 17.5773 16.2033 16.4771 13.6073 16.418C11.3927 16.3565 9.17817 16.3812 6.97836 16.3393C6.32383 16.327 6.01135 16.514 6.01381 17.2377C6.03185 22.805 6.03185 28.3732 6.01381 33.9422C6.01381 34.6165 6.24265 34.8996 6.94147 34.8898C9.23232 34.8578 11.5281 34.9341 13.8165 34.843C16.5232 34.7323 18.3539 33.3785 18.9715 31.2372C19.6113 28.9778 18.8558 27.0482 16.6068 25.3573ZM23.7919 32.495C24.2102 31.9387 24.439 31.6163 24.6851 31.3086C26.4666 29.1107 28.2407 26.9079 30.0369 24.7248C31.6683 22.7558 31.9538 20.5972 30.8047 18.3255C29.8524 16.4328 27.6477 15.4951 25.1108 15.7831C22.3056 16.103 20.16 18.611 20.6694 21.1707C21.5257 20.708 22.8593 21.9682 23.3366 20.1862C23.7279 18.7095 24.7269 18.0941 26.2894 18.1975C27.5935 18.2837 28.4573 19.1353 28.691 20.5677C28.8928 21.8107 28.3661 22.7952 27.6083 23.7108C25.5167 26.236 23.4868 28.8154 21.3263 31.2791C20.3642 32.3744 20.3174 33.4942 20.5684 34.8947H29.5694C31.5872 34.8947 31.5896 34.8947 31.4863 32.8986C31.4524 32.7598 31.3994 32.6265 31.3288 32.5024L23.7919 32.495ZM16.282 44.8972C17.8937 44.9932 19.38 45.1433 20.3716 43.6937C20.9942 42.7855 20.9991 41.1241 20.3716 40.3218C19.2914 38.9336 17.8126 39.1822 16.2747 39.3373L16.282 44.8972ZM28.1915 39.8812C26.5232 38.8548 24.8303 39.1847 23.9617 40.4005C23.0931 41.6164 23.2997 43.5583 24.4538 44.3976C25.4257 45.104 26.6118 45.2566 27.5838 44.7028C28.0021 44.4567 27.943 43.3762 28.0759 42.6723C28.0814 42.4194 28.0582 42.1668 28.0069 41.9191L26.2452 42.0446L26.2328 42.3818L27.2835 42.6575V44.1342C25.6152 44.4887 24.6482 44.1342 24.3751 42.8765C23.7329 39.9821 25.7087 39.7237 28.1816 39.8787L28.1915 39.8812ZM39.0429 45.0227C38.3761 43.0685 37.8249 41.3752 37.2171 39.704C36.9711 39.0198 36.3584 39.0763 36.1443 39.6104C35.4603 41.3112 34.9139 43.0562 34.2299 45.0671C34.4438 44.9422 35.5 43 36.5 43C37.7171 43 38.0304 44.5312 39.033 45.0227H39.0429ZM34.791 39.7729C33.9617 39.1207 31.3927 39.101 30.4577 39.7433L32.3844 40.024V44.912H32.8889V39.9674L34.791 39.7729ZM42.8987 44.88L42.8569 44.309H40.7309C40.3101 42.5861 40.94 40.8633 40.0788 39.352C39.871 41.0171 39.7936 42.6959 39.8475 44.373C39.8475 44.5428 40.0148 44.8505 40.1157 44.8652C41.036 44.8948 41.9612 44.88 42.8888 44.88H42.8987ZM22.3254 45.035V39.1133C21.5503 40.1248 21.5699 44.181 22.3155 45.0474L22.3254 45.035ZM29.7761 39.1945C28.9223 40.0461 28.9444 44.2622 29.7761 44.971V39.1945Z" fill="white"/>
<path d="M8.95923 26.8055C10.7284 26.8055 12.4434 26.7046 14.1412 26.8375C15.4601 26.9384 16.3312 28.1912 16.2968 29.5449C16.2599 30.9453 15.3716 32.112 14.0527 32.1956C12.3868 32.3015 10.7112 32.2227 8.95923 32.2227V26.8055Z" fill="white"/>
<path d="M8.9248 24.1006V19.0132C10.6645 19.0132 12.3697 18.8951 14.0626 19.0526C15.3544 19.1732 16.1147 20.4211 16.0163 21.76C15.9819 22.3614 15.7283 22.9292 15.3034 23.3561C14.8784 23.7829 14.3117 24.0391 13.7107 24.0761C12.1629 24.1597 10.6079 24.1006 8.9248 24.1006Z" fill="white"/>
<path d="M17.0474 39.9019C18.162 39.7518 19.2964 39.7247 19.6852 40.7879C19.9541 41.6541 19.9177 42.5864 19.5819 43.4289C19.1783 44.4134 18.1054 44.4134 17.0474 44.2485V39.9019Z" fill="white"/>
<path d="M36.6094 40.0151L37.3894 42.4887H35.8491C36.0878 41.7159 36.2969 41.0316 36.6094 40.0151Z" fill="white"/>
</svg>
