<svg width="104" height="44" viewBox="0 0 104 44" fill="none" xmlns="http://www.w3.org/2000/svg">
<g clip-path="url(#clip0_316:4613)">
<path d="M42.349 21.9581C42.0774 29.6838 41.1713 35.7171 37.7707 41.1038C36.3306 43.3969 34.8198 43.656 32.7498 41.8559C31.7456 40.9822 30.8144 40.0213 29.8079 39.1522C29.2649 38.6749 28.671 38.2597 28.0369 37.9139C26.6105 37.1526 25.2388 37.2626 24.2118 38.5032C22.2491 40.8835 19.7774 40.8744 17.3491 38.7968C15.4936 37.2054 14.7109 37.21 12.65 38.462C9.65337 40.2828 7.51486 39.9502 5.25314 37.242C2.63539 34.1072 1.34363 30.374 0.688625 26.4137C-0.13527 21.4169 0.254991 16.5187 2.33869 11.8476C5.30563 5.1974 10.6438 1.87462 17.6298 0.902316C18.1182 0.835814 18.609 0.776142 19.1019 0.737159C21.9091 0.507842 22.3724 0.670711 24.1708 2.68411C24.352 2.95704 24.4185 3.29083 24.3557 3.61279C23.9175 6.18114 26.0925 8.61645 28.6646 8.29082C29.6231 8.17158 30.0704 8.41238 30.5017 9.28837C31.5128 11.3362 33.7403 12.0402 35.84 11.0496C36.5817 10.6987 37.0404 10.8202 37.6475 11.3568C38.1495 11.7989 38.786 12.0568 39.4528 12.0883C40.3771 12.0883 40.7765 12.4209 40.9158 13.2762C41.4818 16.6563 42.0386 20.0364 42.349 21.9581ZM39.3592 24.2513C39.4162 20.2864 38.7773 17.2319 37.7023 15.5029C36.9515 14.2944 36.5087 14.127 35.1781 14.5145C32.8137 15.2139 30.5999 14.6682 29.4725 12.8657C28.6646 11.5701 27.6033 11.0083 26.17 10.74C22.9885 10.1392 21.715 8.7747 21.0966 5.55739C20.7976 4.00492 20.3092 3.55553 18.7915 3.67706C13.0858 4.1357 8.50076 6.6788 5.90127 11.8568C2.08077 19.4609 2.56004 26.9663 7.38473 34.0705C8.70616 36.0174 9.70126 36.1734 11.7005 34.9305C14.3023 33.3253 16.2057 33.4629 18.5473 35.4694C20.3138 36.9829 20.9711 36.9784 22.774 35.4374C25.741 32.8965 29.1461 33.1052 31.7547 35.9991C32.3162 36.6206 32.8183 37.297 33.3865 37.9116C34.4546 39.0696 35.2329 39.0238 36.1435 37.719C36.5134 37.1875 36.8198 36.6141 37.0564 36.0107C38.6494 31.9976 39.2359 27.7827 39.3638 24.2604L39.3592 24.2513Z" fill="white"/>
<path d="M89.1675 32.0388C87.7982 32.9905 86.5155 33.3001 85.048 33.0685C82.9392 32.736 81.4238 31.6191 80.6524 29.6791C78.9635 25.4391 79.0548 21.1188 80.8144 16.959C82.2637 13.533 86.1001 12.6891 89.083 14.8768C89.2135 14.9423 89.3514 14.9917 89.4938 15.0236C89.5509 13.9137 90.3634 13.9619 91.1234 13.9343C94.6586 13.8105 94.6243 13.8289 94.5855 17.3741C94.5216 23.2561 94.5331 29.1379 94.5125 35.0199C94.5125 36.71 94.3893 36.8361 92.7438 36.9714C89.382 37.2443 89.2017 37.0792 89.1675 33.6807C89.1629 33.2038 89.1675 32.7199 89.1675 32.0388ZM89.7745 23.2996C89.5988 22.2745 89.4641 21.144 89.2039 20.041C88.9757 19.0687 88.3253 18.3693 87.2914 18.3601C86.1823 18.3601 85.4337 19.0319 85.1302 20.0822C84.4895 22.2145 84.4768 24.4875 85.0937 26.6269C85.3881 27.6474 85.9563 28.4615 87.1477 28.4432C88.339 28.4248 89.0579 27.675 89.3181 26.5903C89.56 25.563 89.617 24.4897 89.7745 23.2996Z" fill="white"/>
<path d="M59.966 32.0205C56.0862 34.4168 53.2357 34.488 50.9489 32.2659C49.0432 30.413 48.5935 27.0123 49.9423 24.632C51.5239 21.8366 54.427 21.1142 59.1125 22.4075C59.2586 21.2151 59.3954 20.041 58.5213 19.0779C57.7978 18.2798 56.7937 18.3051 55.8625 18.5643C55.3569 18.7002 54.9195 19.0196 54.6347 19.4608C54.2604 20.1786 53.8198 20.3597 53.0827 20.1969C52.3067 20.0272 51.5148 19.9217 50.7274 19.8002C49.94 19.6787 49.7369 19.22 49.8328 18.5C50.109 16.4705 51.3391 15.1635 53.1216 14.4412C56.0155 13.2648 58.9436 13.4092 61.7325 14.7897C63.7455 15.7872 64.2772 17.7707 64.3799 19.8002C64.51 22.3089 64.4369 24.8315 64.3981 27.3494C64.3799 28.5304 64.6971 29.3145 66.2239 29.2067C66.2239 30.4015 66.3586 31.5504 66.1601 32.6465C66.0779 33.1051 65.3294 33.7037 64.8181 33.7748C63.1247 34.0041 61.4609 33.8665 60.3083 32.3003C60.2074 32.1918 60.0922 32.0977 59.966 32.0205ZM57.0812 30.085C58.5578 30.0598 59.6556 29.0508 59.6442 27.7346C59.6403 27.4193 59.5743 27.1079 59.4498 26.8185C59.3254 26.5291 59.145 26.2675 58.9192 26.0486C58.6933 25.8298 58.4264 25.6581 58.1341 25.5436C57.8417 25.4292 57.5296 25.3742 57.2159 25.3818C55.68 25.3818 54.5023 26.4069 54.516 27.7231C54.5297 29.0394 55.6982 30.108 57.0812 30.085Z" fill="white"/>
<path d="M72.9314 33.6418C71.8291 33.6418 70.7268 33.6876 69.6267 33.6303C68.3486 33.5638 68.0291 33.2038 68.0063 31.938C68.0063 31.5183 68.0223 31.0988 68.0063 30.6791C67.9652 29.6564 68.3942 29.0555 69.4578 29.0921C70.2474 29.1197 70.4026 28.723 70.3844 28.0304C70.3479 26.5812 70.3479 25.1288 70.3844 23.6734C70.4026 22.9557 70.1904 22.5979 69.4213 22.6461C68.481 22.7034 68.02 22.215 68.0154 21.2702C68.0154 21.0042 67.9561 20.7405 67.9424 20.4722C67.8511 18.6262 68.2916 18.0965 70.106 18.0644C72.16 18.0277 74.2141 18.046 76.2681 18.0987C77.6511 18.1354 78.0505 18.5986 78.0939 20.0204C78.1053 20.401 78.0779 20.7817 78.0733 21.167C78.0733 22.1507 77.5713 22.6783 76.5967 22.6439C75.855 22.6186 75.5902 22.903 75.6131 23.6482C75.6564 25.1365 75.6496 26.6293 75.6131 28.1153C75.5971 28.7895 75.8276 29.0326 76.5123 29.1037C77.8474 29.2229 78.0779 29.5439 78.1098 30.9496C78.1623 33.2772 77.747 33.7015 75.4465 33.6854C74.6112 33.6854 73.7759 33.6854 72.936 33.6854L72.9314 33.6418Z" fill="white"/>
<path d="M76.2955 13.2005C76.2955 15.1634 74.8075 16.6402 72.8105 16.6654C72.3524 16.6643 71.8991 16.5716 71.4771 16.3925C71.055 16.2133 70.6728 15.9515 70.3526 15.6223C70.0324 15.2931 69.7806 14.9031 69.6121 14.4751C69.4436 14.047 69.3617 13.5896 69.3711 13.1294C69.3825 11.3224 71.0052 9.84554 72.9451 9.87306C73.3834 9.86728 73.8185 9.94922 74.225 10.1139C74.6316 10.2786 75.0015 10.5228 75.3132 10.8324C75.625 11.142 75.8724 11.5108 76.041 11.9173C76.2096 12.3238 76.2962 12.7601 76.2955 13.2005Z" fill="white"/>
<path d="M99.6545 26.7461C101.594 26.7461 103.05 28.1221 103.078 29.9772C103.114 31.931 101.521 33.4491 99.456 33.417C97.5458 33.394 96.1125 31.908 96.1147 29.9565C96.1239 28.0807 97.5936 26.7438 99.6545 26.7461Z" fill="white"/>
<path d="M6.82129 21.3526C7.25264 20.0524 7.50598 18.7705 8.09024 17.6698C8.85479 16.2297 10.4637 16.2297 11.4497 17.5116C12.8806 19.3713 12.8806 23.4601 11.4497 25.3083C10.4614 26.5833 8.8319 26.5903 8.07876 25.1525C7.48537 24.0082 7.24579 22.6827 6.82129 21.3526Z" fill="white"/>
<path d="M23.5571 21.4466C23.9383 20.1808 24.1299 18.9242 24.6868 17.8372C25.5746 16.1219 27.4255 16.1265 28.3384 17.8372C29.6233 20.2038 29.6188 22.6873 28.3111 25.0423C27.3982 26.6911 25.6043 26.6888 24.7188 25.024C24.1505 23.9485 23.9451 22.6849 23.5571 21.4466Z" fill="white"/>
</g>
<defs>
<clipPath id="clip0_316:4613">
<rect width="102.788" height="42.3776" fill="white" transform="translate(0.298584 0.65686)"/>
</clipPath>
</defs>
</svg>
