<svg width="97" height="32" viewBox="0 0 97 32" fill="none" xmlns="http://www.w3.org/2000/svg">
<g clip-path="url(#clip0_316:4623)">
<path d="M0.918187 17.0114C0.918187 14.6302 0.939433 12.2491 0.907471 9.86794C0.907471 9.13184 1.13975 8.83315 1.88768 8.87582C2.70167 8.92063 3.51997 8.90996 4.33608 8.87582C4.97534 8.85235 5.21817 9.11476 5.20965 9.75486C5.18408 11.4959 5.23104 13.2391 5.18842 14.9801C5.17138 15.7248 5.42278 15.9851 6.16645 15.9531C7.33416 15.9019 8.51039 15.9531 9.67809 15.9339C11.9624 15.9019 13.4327 14.5151 13.486 12.3622C13.5414 10.0984 12.1861 8.63474 9.8507 8.52166C8.64677 8.45978 7.43645 8.4875 6.22825 8.50457C5.65506 8.50457 5.37593 8.31468 5.38871 7.70445C5.44411 4.44852 4.96257 5.05447 7.86479 5.0374C9.35638 5.02673 10.8479 5.03739 12.3075 5.2977C15.5507 5.87592 17.4514 8.41068 17.5942 11.6986C17.8073 16.5911 14.6387 19.3115 10.5624 19.4267C9.07078 19.4672 7.59204 19.5717 6.10683 19.576C5.41857 19.576 5.15853 19.7894 5.18197 20.4956C5.22246 21.7033 5.15861 22.913 5.20549 24.1228C5.23319 24.8867 4.9924 25.1897 4.18907 25.2025C0.909685 25.2643 0.909656 25.2878 0.909656 22.0297L0.918187 17.0114Z" fill="white"/>
<path d="M45.8876 16.9986C45.8876 14.6516 45.9196 12.3046 45.8706 9.95759C45.8535 9.10413 46.1454 8.80967 46.9765 8.86941C47.7571 8.9143 48.5397 8.9143 49.3204 8.86941C49.9597 8.84381 50.1983 9.11476 50.1898 9.75058C50.1642 11.4575 50.2175 13.1644 50.1685 14.8713C50.145 15.7248 50.4519 15.9979 51.2829 15.951C52.3483 15.8891 53.4138 15.951 54.4792 15.9297C56.8338 15.9019 58.255 14.5726 58.3509 12.3152C58.4447 10.1261 57.0234 8.63046 54.6752 8.50884C53.5778 8.45123 52.4741 8.47255 51.3746 8.49175C50.7907 8.49175 50.5329 8.27838 50.5393 7.68096C50.5734 4.39942 50.1728 5.02672 53.0345 5.03099C54.5794 5.03099 56.1818 5.06513 57.6606 5.45772C61.4322 6.46267 62.7149 9.42201 62.4976 12.6417C62.2312 16.5846 59.7275 19.1216 56.0901 19.3691C54.4664 19.48 52.8363 19.559 51.2105 19.5611C50.4093 19.5611 50.1451 19.8406 50.177 20.6151C50.2196 21.8206 50.1599 23.0325 50.1962 24.2423C50.2153 24.9315 49.9533 25.1598 49.2671 25.1875C45.894 25.3177 45.894 25.3347 45.894 22.0063L45.8876 16.9986Z" fill="white"/>
<path d="M66.3376 14.227C66.1437 13.8259 65.9988 13.5485 65.8709 13.2647C64.9866 11.3061 64.9866 11.3017 67.062 10.5507C69.406 9.69724 71.8245 9.44548 74.275 9.97036C77.0302 10.5614 78.5218 12.471 78.5261 15.2917C78.5261 18.2084 78.5026 21.1251 78.541 24.0396C78.5516 24.8654 78.3279 25.2451 77.4564 25.1448C77.0306 25.1202 76.6037 25.1202 76.1779 25.1448C74.5989 25.1448 74.5989 25.1448 74.2878 23.5425C73.9959 23.7558 73.7444 23.9052 73.5121 24.0887C71.6178 25.5823 69.4636 25.7359 67.2539 25.1406C66.284 24.871 65.4345 24.2792 64.8451 23.4622C64.2557 22.6452 63.9614 21.6516 64.0107 20.645C64.1087 18.4537 65.4405 16.7489 67.6608 16.4182C69.472 16.1494 71.3323 16.2049 73.1734 16.1558C74.3624 16.1152 74.5478 15.8827 74.2026 14.7476C73.8893 13.7256 72.9241 13.0855 71.6626 12.9809C69.7981 12.8167 68.087 13.3224 66.3376 14.227ZM72.3743 18.5327V18.4537C71.5369 18.5455 70.6931 18.6095 69.8599 18.7332C69.4655 18.7689 69.0976 18.9474 68.8253 19.2353C68.553 19.5233 68.3951 19.9009 68.3811 20.2972C68.3044 21.1251 68.6176 21.8654 69.3933 22.2473C70.8188 22.9514 73.5016 22.7274 74.5073 20.5959C75.1466 19.2581 74.6757 18.5391 73.2288 18.5327H72.3743Z" fill="white"/>
<path d="M83.7422 31.1552C84.4134 29.4483 84.9526 27.9676 85.5918 26.521C85.7624 26.1552 85.8508 25.7565 85.8508 25.3528C85.8508 24.9491 85.7624 24.5504 85.5918 24.1847C83.8509 19.8768 82.1611 15.5477 80.4585 11.2228C80.2945 10.7961 80.1667 10.3693 79.96 9.76976C81.3812 9.76976 82.6448 9.72494 83.8999 9.81028C84.147 9.82522 84.4412 10.3139 84.5754 10.6424C85.6217 13.2028 86.6338 15.7781 87.6609 18.347C87.7887 18.667 87.9357 18.9871 88.1786 19.5333C88.4215 19.0682 88.5792 18.8249 88.6837 18.5604C89.7384 15.9274 90.8039 13.2967 91.8181 10.6467C92.0738 9.98101 92.419 9.6951 93.1457 9.7335C94.194 9.79111 95.2445 9.74845 96.4762 9.74845C96.197 10.5336 96.0031 11.1268 95.7751 11.7071C93.38 17.8157 90.9573 23.9137 88.6005 30.0394C88.2575 30.9334 87.793 31.2363 86.881 31.1723C85.9136 31.1019 84.9312 31.1552 83.7422 31.1552Z" fill="white"/>
<path d="M40.1812 20.3185L42.8703 22.1556C41.7538 24.7629 38.0759 25.8702 35.3377 25.5224C31.2422 25.004 28.6916 22.3604 28.4125 18.5198C28.1269 14.5683 30.066 11.2655 33.4157 10.2797C36.8102 9.27905 41.008 10.0983 42.7638 13.0662C41.9881 13.6274 41.2211 14.2398 40.3879 14.7454C40.211 14.8542 39.7487 14.6387 39.5036 14.4552C38.2699 13.51 36.9188 13.1281 35.4081 13.557C34.6713 13.7767 34.0184 14.2149 33.5353 14.8136C33.0522 15.4124 32.7616 16.1436 32.7019 16.911C32.5463 18.8633 32.8532 20.6364 34.7646 21.6755C36.2434 22.4777 38.2528 22.1747 39.5313 21.014C39.738 20.8263 39.9169 20.6022 40.1812 20.3185Z" fill="white"/>
<path d="M24.8477 18.7397C24.8477 20.5511 24.8264 22.3668 24.8477 24.174C24.8605 24.8888 24.6346 25.1705 23.876 25.1939C20.7159 25.2899 20.7181 25.3113 20.7181 22.1215C20.7181 19.2795 20.7416 16.4375 20.7032 13.5869C20.6926 12.774 20.9163 12.4625 21.7687 12.4561C24.8307 12.4305 24.8306 12.4006 24.8306 15.4261L24.8477 18.7397Z" fill="white"/>
<path d="M25.2078 9.34084C24.0039 9.34084 22.7978 9.3195 21.5853 9.34084C20.9461 9.35577 20.7032 9.10617 20.7096 8.46608C20.7309 6.11907 20.7373 3.77202 20.7096 1.43782C20.7096 0.733718 20.9823 0.509723 21.6557 0.516124C23.957 0.540305 26.2597 0.540305 28.5639 0.516124C29.2479 0.516124 29.5058 0.759336 29.4973 1.45277C29.4696 3.79978 29.4738 6.1361 29.4973 8.47884C29.4973 9.13387 29.233 9.35577 28.6065 9.3323C27.4751 9.32163 26.3435 9.34084 25.2078 9.34084ZM28.191 4.82393C28.191 4.07929 28.1675 3.33039 28.191 2.58788C28.2166 1.98193 28.0376 1.6576 27.3642 1.66827C25.8407 1.69387 24.3129 1.64266 22.7914 1.71093C22.5251 1.72373 22.0712 2.16755 22.0584 2.42786C21.9903 4.02382 22.0392 5.62832 22.0158 7.22215C22.0158 7.8281 22.2693 8.03721 22.8425 8.0308C24.3341 8.01587 25.8257 8.01374 27.3173 8.0308C27.9417 8.0308 28.2315 7.81743 28.1995 7.16453C28.1697 6.39002 28.1974 5.61552 28.1974 4.82393H28.191Z" fill="white"/>
<path d="M25.1694 3.58429C26.254 3.31972 26.5245 3.80833 26.548 4.86448C26.5735 6.00171 26.1431 6.24707 25.1224 6.19373C23.7075 6.11906 23.7822 6.1703 23.6863 4.7877C23.6053 3.59499 24.1785 3.39653 25.1694 3.58429Z" fill="white"/>
</g>
<defs>
<clipPath id="clip0_316:4623">
<rect width="95.5751" height="30.6562" fill="white" transform="translate(0.905273 0.524658)"/>
</clipPath>
</defs>
</svg>
