<svg width="70" height="55" viewBox="0 0 70 55" fill="none" xmlns="http://www.w3.org/2000/svg">
<g clip-path="url(#clip0_316:4643)">
<path d="M69.3868 40.3643C67.6816 46.4276 64.4429 51.4836 58.2903 53.5684C48.6531 56.8333 40.7628 54.0675 35.0904 45.5368C29.483 53.9625 21.7343 56.6677 12.1527 53.7316C6.12077 51.8823 1.55963 45.1777 0.921631 40.1567C1.75219 40.7304 2.50853 41.3228 3.32284 41.8055C5.41084 43.0648 7.66585 43.3913 9.80024 42.1599C11.7514 41.0336 13.4891 39.5388 15.352 38.2491C17.3727 36.8499 19.3493 35.3597 21.4883 34.1657C22.5367 33.5667 23.7219 33.2517 24.9278 33.2517C26.1336 33.2517 27.3187 33.5667 28.3671 34.1657C30.3135 35.2268 32.1116 36.5863 33.891 37.9296C34.8004 38.6176 35.4501 38.6293 36.3154 37.897C37.5004 36.9109 38.7347 35.9862 40.0135 35.1265C43.0295 33.0766 46.2774 32.5332 49.4442 34.5364C52.1679 36.2552 54.6665 38.3307 57.2695 40.243C57.9215 40.7211 58.5664 41.2131 59.2555 41.6422C62.3248 43.5079 65.255 43.1837 68.0506 41.0266C68.4148 40.7467 68.7721 40.4622 69.134 40.1777L69.3868 40.3643Z" fill="white"/>
<path d="M59.2115 20.6374C57.4089 21.4747 55.7686 22.4308 54.0054 22.9998C52.2423 23.5688 50.3444 23.9163 48.7297 22.067C48.5363 22.4446 48.3666 22.834 48.2217 23.233C47.7437 24.9447 47.2566 26.6541 46.846 28.3799C46.6279 29.2987 46.4654 30.2152 45.2405 30.0123C43.9598 29.8141 42.9785 28.6294 43.2105 27.489C43.5469 25.8262 44.0248 24.1938 44.4355 22.545C44.5306 22.1556 44.5909 21.7568 44.6861 21.2764C42.9693 21.9387 41.438 22.65 39.8465 23.1094C38.1923 23.5758 36.4872 23.7134 34.9607 21.9807C34.6637 22.9882 34.4317 23.7368 34.2229 24.49C33.8633 25.7936 33.4851 27.0925 33.1789 28.4055C32.9747 29.2777 32.8077 30.1639 31.65 30.0379C30.323 29.884 29.2581 28.6084 29.5156 27.4727C29.8961 25.7796 30.3763 24.1075 30.8032 22.4238C30.8652 22.0741 30.9094 21.7215 30.9355 21.3673L29.2767 22.5334C27.5042 23.767 26.5994 23.6271 25.1656 22.0203C25.0032 21.8384 24.4232 21.8664 24.1285 22.0017C23.4325 22.3165 22.841 22.8715 22.1334 23.1164C20.238 23.7717 18.3286 22.6943 18.1337 20.6794C17.9758 19.042 18.0721 17.3898 18.4191 15.7821C18.9805 13.2168 20.0755 10.8428 22.1844 9.15672C23.0191 8.48781 23.9714 7.98229 24.9916 7.6665C26.4184 7.24207 26.9566 7.62452 28.4298 9.53215C28.7407 9.25696 29.0376 8.97712 29.3578 8.7206C30.084 8.12359 31.2881 8.14691 32.0375 8.7206C32.8796 9.35492 32.513 10.0312 32.223 10.7752C31.3948 12.8927 30.555 15.0125 29.852 17.1743C29.6502 17.79 29.896 18.5525 29.9378 19.2475C30.5248 18.8767 31.2371 18.6155 31.664 18.1118C32.1819 17.4447 32.5928 16.7004 32.882 15.9057C33.6847 13.9398 34.3829 11.9412 35.1903 9.96827C35.9141 8.21223 37.2296 7.77847 38.7956 8.80224C39.3292 9.14972 39.6748 9.13573 40.1017 8.74627C40.269 8.58599 40.4526 8.44372 40.6493 8.32182C41.7884 7.6222 42.9878 7.25607 44.2568 7.91605C45.5259 8.57602 45.8065 9.80968 45.8297 11.069C45.8901 14.068 44.8067 16.7359 43.2941 19.2568C43.0566 19.5987 42.8894 19.9849 42.8022 20.3926C44.519 19.7699 45.6163 18.5525 46.2404 16.8735C46.9526 14.9565 47.6441 13.0302 48.354 11.111C48.4885 10.7495 48.6463 10.395 48.818 10.0475C49.7599 8.11425 50.7296 7.83677 52.6111 8.85821C52.8895 9.00979 53.386 8.93749 53.7062 8.79524C54.2235 8.56203 54.648 8.10958 55.1677 7.88803C57.1443 7.0415 58.8287 7.86938 59.3113 9.98689C59.9145 12.6198 59.0329 15.0242 57.9541 17.3586C57.4901 18.366 56.9078 19.3175 56.2721 20.4952C56.6734 20.3879 56.924 20.3786 57.1096 20.262C58.5689 19.3729 59.6623 17.9868 60.1906 16.3558C60.9585 14.1333 61.8145 11.9389 62.761 9.78403C63.3155 8.51306 64.2992 8.09563 65.4755 8.3405C66.5867 8.5737 67.0414 9.41789 66.6169 10.4743C65.9209 12.193 65.2249 13.9071 64.5475 15.6328C64.3164 16.1634 64.1602 16.7239 64.0835 17.2979C64.0278 17.9416 64.1554 18.6015 64.2041 19.2568C64.7354 18.9443 65.3363 18.7088 65.7794 18.3007C66.3687 17.7573 66.7955 17.0391 67.3709 16.4747C67.6029 16.2415 68.0483 16.2135 68.3963 16.0923C68.3963 16.4351 68.5309 16.8944 68.3615 17.102C66.9278 18.858 65.4639 20.6001 63.9535 22.2792C63.6125 22.6616 63.0673 22.9018 62.5615 23.1001C60.752 23.823 59.7962 23.2657 59.4273 21.3371C59.3686 21.0999 59.2965 20.8664 59.2115 20.6374ZM26.9474 11.3675L26.4323 10.1408C26.1052 10.2971 25.6644 10.3624 25.4696 10.6073C23.4892 13.1858 22.3166 16.2981 22.1009 19.5483C22.0731 19.9121 22.377 20.3039 22.5278 20.6817C22.9013 20.4649 23.3885 20.3342 23.6321 20.0171C25.5322 17.5521 26.437 14.6744 26.9474 11.3675ZM41.7281 11.2859L41.2896 10.2248C40.9346 10.4113 40.4846 10.5139 40.2387 10.7961C38.0091 13.3357 36.9511 16.3931 36.4338 19.6789C36.3827 20.0008 36.6658 20.3786 36.7795 20.7237C37.1461 20.5744 37.6449 20.5301 37.8607 20.2573C39.9046 17.6757 41.1434 14.728 41.7281 11.2859ZM55.3812 11.2859L54.9984 10.2504C54.6109 10.4393 54.1121 10.5326 53.8569 10.8335C51.7133 13.3847 50.5834 16.3954 50.0916 19.6603C50.0429 19.9868 50.3073 20.3599 50.4257 20.712C50.7922 20.5604 51.284 20.5091 51.5044 20.2456C53.5831 17.664 54.8082 14.7 55.3881 11.2859H55.3812Z" fill="white"/>
<path d="M9.68419 13.5531C12.5169 12.5083 14.1943 10.7873 15.0202 8.27097C15.2501 7.5351 15.329 6.75998 15.2522 5.99255C15.0735 4.01263 13.2152 2.88154 10.937 3.27099C7.57762 3.84235 4.50364 7.03498 3.99093 10.4864C3.80069 11.7691 3.09776 12.0979 1.99344 11.4193C0.889129 10.7406 0.508641 9.1385 1.23016 7.57369C2.56183 4.6866 4.92359 2.96084 7.84678 2.00003C10.9161 0.992582 13.9693 1.06725 16.9273 2.5108C21.0592 4.53269 20.9014 8.57411 18.3192 11.4472C16.969 12.9537 15.2638 13.9192 13.3915 14.5699C12.4635 14.8917 12.1805 15.3931 12.4217 16.3096C12.8718 18.0166 13.0853 19.824 13.772 21.4261C15.1176 24.5651 17.9874 26.3491 21.8223 24.5744C22.1471 24.4228 22.6297 24.6117 23.0403 24.642C22.8524 25.0105 22.7503 25.4839 22.4603 25.7287C20.9384 27.009 19.2635 27.9932 17.2474 28.294C14.5098 28.7091 12.4149 27.6597 10.8999 25.4419C9.76001 23.7785 9.03872 21.8619 8.798 19.8566C8.71885 19.4284 8.61339 19.0055 8.4824 18.5903L8.11593 18.5647C7.83753 19.5768 7.54282 20.5866 7.28298 21.5963C6.80042 23.4923 6.35497 23.8957 5.0117 23.5739C3.64058 23.2428 2.92368 22.0697 3.19048 20.5889C4.06744 15.7265 5.81681 11.1534 7.75865 6.64553C8.26672 5.46551 11.176 4.95008 12.0321 5.89689C12.2293 6.11611 12.1806 6.7015 12.0553 7.04664C11.4358 8.75138 10.7468 10.4305 10.0948 12.1235C9.97652 12.4873 9.89067 12.8534 9.68419 13.5531Z" fill="white"/>
<path d="M66.4637 0.803239C68.1133 0.803239 69.2825 2.01588 69.2477 3.68797C69.2245 5.30875 68.0715 6.44214 66.4637 6.43514C65.7277 6.42376 65.024 6.12924 64.4975 5.61214C63.971 5.09504 63.6617 4.39472 63.6333 3.65534C63.6201 3.27781 63.6841 2.90154 63.8216 2.54995C63.959 2.19836 64.167 1.87894 64.4324 1.61149C64.6978 1.34404 65.015 1.13427 65.3645 0.995224C65.7139 0.856181 66.0881 0.79086 66.4637 0.803239Z" fill="white"/>
</g>
<defs>
<clipPath id="clip0_316:4643">
<rect width="68.5256" height="54.0991" fill="white" transform="translate(0.861328 0.803223)"/>
</clipPath>
</defs>
</svg>
