<svg width="115" height="29" viewBox="0 0 115 29" fill="none" xmlns="http://www.w3.org/2000/svg">
<g clip-path="url(#clip0_316:4681)">
<path d="M101.049 28.5479C101.001 28.566 100.951 28.5788 100.9 28.5858C100.813 28.4042 100.664 28.2206 100.662 28.0369C100.644 26.3005 100.646 24.564 100.652 22.8275C100.642 22.5953 100.722 22.3683 100.876 22.1944C101.029 22.0205 101.244 21.9133 101.475 21.8954C102.567 21.7511 103.612 21.3551 104.527 20.7385C105.442 20.1219 106.203 19.3013 106.75 18.3406C107.175 17.5951 107.45 16.7733 107.561 15.9215C107.919 13.3627 107.064 11.1113 105.2 9.47265C104.201 8.58526 102.962 8.01623 101.64 7.83794C101.101 7.76209 100.626 7.39887 100.646 6.73622C100.681 5.08757 100.681 3.43824 100.646 1.78826C100.647 1.65642 100.675 1.52621 100.731 1.40657C100.786 1.28692 100.866 1.18064 100.966 1.09499C101.066 1.00934 101.183 0.946316 101.309 0.910262C101.435 0.874208 101.568 0.865984 101.697 0.886093C102.663 1.08569 103.66 1.17548 104.6 1.45691C106.658 2.08555 108.543 3.18041 110.113 4.65704C111.682 6.13368 112.893 7.95265 113.651 9.97364C114.266 11.6114 114.559 13.3534 114.514 15.1032C114.522 15.1461 114.522 15.1901 114.514 15.2329C114.494 15.2728 114.414 15.3128 114.42 15.3347C114.619 15.9954 114.42 16.6341 114.305 17.2708C114.122 18.4641 113.76 19.6229 113.232 20.7078C112.895 21.3957 112.517 22.0623 112.1 22.7038C111.669 23.3413 111.187 23.9421 110.659 24.5001C110.117 25.0658 109.529 25.5858 108.902 26.0549C108.282 26.5139 107.628 26.9256 106.947 27.2865C105.337 28.1351 103.57 28.6438 101.757 28.7814C101.491 28.8034 101.147 28.9411 101.049 28.5479Z" fill="white"/>
<path d="M64.5474 17.0751H59.5918C59.1943 17.0751 59.1665 17.1171 59.256 17.5143C59.4282 18.452 59.8584 19.3224 60.4979 20.0271C60.8632 20.4114 61.3046 20.7146 61.7936 20.917C62.2827 21.1195 62.8086 21.2169 63.3374 21.2028C64.768 21.2028 66.0258 20.7497 67.0193 19.6759C67.1743 19.5082 67.3253 19.3366 67.4664 19.1569C67.6075 18.9773 67.7426 18.9813 67.9055 19.125C68.4858 19.6339 69.066 20.1409 69.6522 20.6439C69.8509 20.8136 69.8409 20.9732 69.7018 21.1808C68.9338 22.3587 67.8054 23.2539 66.4868 23.7316C64.615 24.4063 62.6975 24.54 60.7959 23.9053C58.336 23.0849 56.7165 21.3744 55.9713 18.8935C55.2381 16.4544 55.3594 14.0513 56.6231 11.7959C57.1298 10.862 57.8338 10.0509 58.6858 9.41959C59.5379 8.78824 60.5171 8.35192 61.5549 8.14128C63.3572 7.74209 65.1316 7.8858 66.7908 8.74006C68.307 9.52248 69.3104 10.782 69.9065 12.3747C70.3218 13.5253 70.518 14.744 70.4847 15.9674C70.4847 16.7658 70.1847 17.0671 69.374 17.0691C67.7645 17.0691 66.157 17.0691 64.5474 17.0691V17.0751ZM63.0909 14.4645H66.6219C66.8047 14.4645 67.0193 14.4644 66.9399 14.191C66.7968 13.6701 66.7093 13.1112 66.453 12.6481C65.4217 10.7899 62.8763 10.5664 61.3661 11.3548C60.3011 11.9116 59.6791 12.8278 59.3791 13.9774C59.2479 14.4604 59.2499 14.4665 59.7507 14.4665L63.0909 14.4645Z" fill="white"/>
<path d="M21.5614 16.0134C21.5812 13.7979 22.2588 11.8219 23.8266 10.2251C25.1166 8.90254 26.8458 8.10264 28.6849 7.9777C30.1401 7.82959 31.6086 8.06556 32.9452 8.66229C34.4559 9.3397 35.6951 10.5091 36.4623 11.9815C37.2382 13.4347 37.5778 15.0827 37.4399 16.7259C37.2829 18.8635 36.514 20.7557 34.9183 22.2367C33.6987 23.3743 32.137 24.0722 30.4792 24.2207C28.983 24.4077 27.4644 24.1799 26.0878 23.562C25.1626 23.1476 24.3309 22.5485 23.6433 21.8012C22.9557 21.0539 22.4265 20.1739 22.0879 19.2148C21.7138 18.1903 21.5352 17.1043 21.5614 16.0134ZM33.9605 15.9754C33.9307 15.7159 33.9049 15.3227 33.8393 14.9375C33.5373 13.1412 32.5955 11.8598 30.829 11.257C29.8259 10.9382 28.7421 10.9917 27.775 11.4078C26.8078 11.824 26.0216 12.575 25.5593 13.5244C25.0765 14.5623 24.993 15.6481 25.0665 16.7559C25.2116 18.9813 26.6064 20.8296 28.828 21.1469C30.6004 21.3964 32.0549 20.8016 33.0922 19.2887C33.7479 18.3227 33.9069 17.2329 33.9605 15.9754Z" fill="white"/>
<path d="M39.5979 18.7877C39.5979 17.2808 39.5324 15.7698 39.6138 14.2689C39.7172 12.3388 40.3828 10.6263 41.9248 9.36085C42.8951 8.58813 44.0694 8.11768 45.3027 8.00759C46.642 7.8539 47.9754 7.9098 49.259 8.37286C51.0851 9.02953 52.2872 10.3029 52.929 12.1392C53.2867 13.1691 53.3602 14.233 53.3682 15.3008C53.388 17.9534 53.3682 20.608 53.3682 23.2606C53.3682 23.7775 53.3424 23.8055 52.8397 23.8055H50.2962C49.8292 23.8055 49.8094 23.7875 49.8094 23.3325C49.8094 20.5807 49.8094 17.829 49.8094 15.0772C49.8343 14.3779 49.7319 13.6799 49.5074 13.0174C49.0484 11.7999 48.1443 11.1891 46.8984 11.0654C45.9406 10.9736 45.0286 11.1332 44.2656 11.7839C43.5999 12.3527 43.3117 13.1212 43.2004 13.9635C43.1551 14.3203 43.1325 14.6796 43.1329 15.0393C43.1329 17.791 43.1329 20.5428 43.1329 23.2946C43.1329 23.8035 43.1329 23.8075 42.6223 23.8055H40.0132C39.6158 23.8055 39.588 23.7696 39.588 23.3744C39.588 21.8455 39.588 20.3153 39.588 18.7837L39.5979 18.7877Z" fill="white"/>
<path d="M6.16233 7.98167C7.63403 7.93642 9.09448 8.25294 10.4166 8.90377C10.6889 9.0375 10.7763 9.1752 10.677 9.48657C10.4782 10.0854 10.3431 10.7061 10.1821 11.3169C10.0768 11.7161 9.95958 11.7899 9.58602 11.6103C8.6056 11.1341 7.54585 10.8444 6.46039 10.756C5.78621 10.7039 5.10872 10.7971 4.47333 11.0294C4.17203 11.1305 3.90819 11.3206 3.71635 11.575C3.52452 11.8293 3.41361 12.1359 3.39831 12.4546C3.37589 12.7811 3.46598 13.1055 3.65339 13.3734C3.84079 13.6412 4.11413 13.8361 4.42764 13.9256C5.32777 14.205 6.25768 14.3807 7.17371 14.6102C8.08974 14.8397 9.01974 15.1192 9.8245 15.6621C10.9531 16.4225 11.432 17.5343 11.4976 18.8556C11.6108 21.121 10.2477 22.8794 8.16326 23.6917C6.74053 24.2466 5.27209 24.2706 3.79174 24.051C2.90154 23.9173 2.02529 23.6957 1.149 23.4882C0.869201 23.4028 0.597315 23.2933 0.336328 23.1608C0.225092 23.1176 0.13432 23.0337 0.0823192 22.9259C0.0303182 22.8181 0.0209303 22.6944 0.0561228 22.58C0.181307 21.9493 0.316427 21.3186 0.453533 20.6898C0.511158 20.4064 0.652281 20.3106 0.944378 20.4104C1.70724 20.6942 2.48383 20.9394 3.27121 21.1449C4.46344 21.4144 5.66956 21.5601 6.87371 21.1728C7.94076 20.8315 8.47919 19.6759 8.00627 18.7138C7.68834 18.0671 7.05652 17.8935 6.4306 17.7278C5.33971 17.4424 4.22891 17.2189 3.16186 16.8596C2.09481 16.5004 1.17481 15.8796 0.578694 14.8637C0.087321 13.9941 -0.0856908 12.9792 0.089596 11.995C0.264883 11.0108 0.777437 10.1192 1.53846 9.47463C2.7128 8.47666 4.10171 8.03955 5.62181 7.98367C5.79269 7.97568 5.97753 7.98167 6.16233 7.98167Z" fill="white"/>
<path d="M17.2973 11.6901V12.1771C17.2973 14.4265 17.3152 16.6759 17.2973 18.9254C17.2814 20.3525 18.0047 20.7956 19.1572 20.8155C19.4726 20.8148 19.7877 20.7962 20.101 20.7596C20.3434 20.7377 20.4627 20.8016 20.4588 21.075C20.4448 21.8514 20.4588 22.6259 20.4588 23.4023C20.4588 23.6019 20.4051 23.7476 20.1945 23.8015C18.7141 24.1029 17.2377 24.1847 15.811 23.5679C15.332 23.3662 14.9081 23.0519 14.5751 22.6514C14.2421 22.251 14.0098 21.776 13.8975 21.2666C13.7539 20.674 13.6811 20.0663 13.6809 19.4563C13.663 14.9914 13.6689 10.5244 13.6689 6.05951C13.6689 5.60643 13.7048 5.57451 14.1499 5.57251C15.0202 5.57251 15.8898 5.57251 16.7588 5.57251C17.1423 5.57251 17.1861 5.61841 17.1881 6.01161C17.1881 6.6563 17.1881 7.29898 17.1881 7.94367C17.1881 8.40473 17.188 8.40674 17.6331 8.40674C18.4279 8.40674 19.2407 8.40674 20.0454 8.40674C20.3336 8.40674 20.4587 8.50255 20.4527 8.80593C20.4408 9.62427 20.4527 10.4426 20.4527 11.261C20.4527 11.6162 20.3693 11.6961 20.0017 11.6961C19.1075 11.6921 18.2273 11.6901 17.2973 11.6901Z" fill="white"/>
<path d="M86.7109 14.7339L86.7526 14.9335C86.5301 13.9355 87.3487 13.4944 87.8434 12.9036C88.4932 12.1312 89.1926 11.3967 89.8722 10.6482C90.6134 9.83186 91.3506 9.00953 92.1057 8.20317C92.5667 7.71217 93.2821 7.84589 93.4669 8.44068C93.4961 8.54519 93.5094 8.65354 93.5065 8.76205C93.5065 12.8018 93.5065 16.8416 93.5065 20.8814C93.5065 21.4642 93.1767 21.8335 92.678 21.7736C92.4561 21.7413 92.2509 21.6368 92.0938 21.4762C91.0208 20.3186 89.9696 19.1449 88.9145 17.9733C88.2945 17.2894 87.6759 16.6028 87.0586 15.9135C86.9203 15.7531 86.8177 15.5649 86.7577 15.3615C86.6978 15.158 86.6818 14.9441 86.7109 14.7339ZM93.4291 8.62034H93.3893V20.8215H93.4291V8.62034Z" fill="white"/>
</g>
<defs>
<clipPath id="clip0_316:4681">
<rect width="114.51" height="27.9512" fill="white" transform="translate(0 0.870117)"/>
</clipPath>
</defs>
</svg>
