<svg width="101" height="30" viewBox="0 0 101 30" fill="none" xmlns="http://www.w3.org/2000/svg">
<g clip-path="url(#clip0_316:4568)">
<path d="M100.098 19.9836C98.37 23.079 93.4857 24.5739 90.341 22.9497C89.2793 22.4035 89.8138 21.3893 89.823 20.5972C89.823 19.7596 90.6129 20.0509 91.1088 20.0619C92.211 20.0983 93.3131 20.2203 94.4024 20.2439C95.1371 20.2603 95.859 20.111 96.0996 19.2571C96.331 18.4377 95.8957 17.886 95.2491 17.4854C94.035 16.7352 92.7804 16.0487 91.5754 15.2767C89.6008 14.0021 88.8917 12.3015 89.4115 10.2549C89.8579 8.49416 91.1603 7.50906 93.4803 7.27053C95.1867 7.08845 96.8803 7.31243 98.5776 7.51636C100.093 7.69845 99.5823 8.80003 99.6557 9.63397C99.7513 10.6809 99.0019 10.5444 98.3332 10.5244C97.0676 10.477 95.8039 10.426 94.5382 10.4096C93.9174 10.4096 93.2837 10.4734 93.1147 11.2308C92.9549 11.9482 93.4196 12.3543 93.9688 12.662C95.0213 13.252 96.0665 13.8619 97.1558 14.3827C98.5114 15.0309 99.3692 16.118 100.095 17.3598L100.098 19.9836Z" fill="white"/>
<path d="M0.916748 12.7749C1.73783 11.1562 1.9197 9.25521 3.13938 7.81311C4.37926 7.99519 3.77861 8.86558 3.69044 9.43732C3.32306 11.6952 2.91534 13.902 3.24781 16.2454C3.77867 20.0018 5.24629 23.2355 7.80689 26.0269C8.28447 26.5476 9.0927 27.0338 8.49571 27.9624C4.99097 26.1653 2.78488 23.3102 1.5505 19.6449C1.36682 19.0987 1.44031 18.4413 0.922309 18.017L0.916748 12.7749Z" fill="white"/>
<path d="M81.693 20.2294C82.407 17.009 83.1228 13.7873 83.8404 10.5644C83.9102 10.2458 83.9635 9.92168 84.0369 9.60304C84.5145 7.48905 85.4568 6.93918 87.5931 7.43809C88.2176 7.58376 88.2195 7.90785 88.1019 8.38309C87.0347 12.7221 86.0152 17.0739 84.8837 21.3947C84.4502 23.0553 83.0322 23.3631 81.4874 23.3722C79.9426 23.3813 78.4896 23.079 78.0543 21.4421C76.8915 17.0721 75.8739 12.6638 74.8103 8.26835C74.7626 8.07352 74.7497 7.71122 74.8398 7.66752C75.7729 7.21231 76.7776 7.50362 77.753 7.45992C78.5171 7.42532 78.552 8.03714 78.6714 8.57793C79.4135 11.9853 80.1636 15.3908 80.9216 18.7946C81.0263 19.2662 81.1622 19.7305 81.289 20.1984L81.693 20.2294Z" fill="white"/>
<path d="M65.9933 16.8699C65.9933 15.1255 65.9492 13.3812 66.0098 11.6404C66.0429 10.73 65.7563 10.3204 64.8048 10.4333C64.3713 10.4842 63.9195 10.3932 63.4878 10.4497C62.2736 10.6099 62.0275 10.0218 62.0183 8.94019C62.0091 7.85861 62.2534 7.38153 63.4731 7.41613C66.3845 7.49625 69.3015 7.50171 72.2129 7.41613C73.484 7.37789 73.6163 7.94236 73.6421 8.97842C73.6696 10.1274 73.2746 10.4842 72.1248 10.4678C69.6707 10.4351 69.6707 10.4952 69.6707 12.9915C69.6707 15.934 69.5862 18.8783 69.7001 21.8171C69.768 23.5942 68.6108 23.1445 67.6355 23.2319C66.5333 23.3302 65.8665 23.1317 65.9602 21.7752C66.0796 20.1456 65.9933 18.505 65.9933 16.8699Z" fill="white"/>
<path d="M40.1357 16.7097C40.1357 15.0163 40.0898 13.3229 40.1522 11.6332C40.1853 10.6991 39.862 10.3295 38.9234 10.4314C38.4348 10.4843 37.9278 10.395 37.4392 10.4497C36.1424 10.5972 36.2287 9.76322 36.1993 8.8965C36.1662 7.94421 36.2894 7.38155 37.5017 7.41432C40.4738 7.49444 43.4512 7.48715 46.4251 7.41432C47.5989 7.38701 47.7771 7.92054 47.7826 8.8965C47.7826 9.93984 47.5989 10.4879 46.3389 10.4679C43.8242 10.426 43.8223 10.5025 43.8223 12.9333C43.8223 15.8812 43.7397 18.8328 43.8554 21.7752C43.916 23.3521 43.0104 23.2319 41.9763 23.2319C40.9421 23.2319 39.987 23.3702 40.1082 21.7861C40.2368 20.1018 40.1376 18.4012 40.1357 16.7097Z" fill="white"/>
<path d="M28.0161 8.21002C29.9375 11.2635 30.4775 14.5465 29.6969 18.0534C29.3883 17.7748 29.2009 17.1248 28.6242 17.7948C28.1967 18.2763 27.6788 18.6709 27.0995 18.9566C26.5044 19.2625 25.8908 19.5156 25.4316 18.7308C25.0459 16.7861 25.2333 14.8178 25.2645 12.8658C25.2976 10.8739 25.1047 9.13135 22.77 8.52137C22.5588 8.46675 22.4302 8.25552 22.3329 8.05341C22.805 6.79704 23.8611 7.09928 24.7796 7.2231C25.9019 7.37787 26.9104 7.96603 28.0161 8.21002Z" fill="white"/>
<path d="M8.49015 27.9625C8.36157 26.4949 6.9858 25.8885 6.23452 24.8671C2.90795 20.315 1.95458 15.3605 3.12099 9.90527C3.25692 9.26798 4.02291 8.51053 3.13937 7.82043C3.81034 6.561 4.74246 5.45646 5.8745 4.57935C6.58904 5.45881 5.96084 6.21811 5.65592 7.00653C3.97886 11.3073 3.47188 15.6354 5.33447 20.02C5.58428 20.5298 5.79736 21.0597 6.06922 21.5568C7.00969 24.0513 8.86124 25.7848 10.9222 27.3725C11.6074 27.9006 12.6507 28.2465 12.4744 29.4428C11.0465 29.2703 9.68063 28.7628 8.49015 27.9625Z" fill="white"/>
<path d="M10.4464 1.93002C12.4578 0.930386 14.6032 0.875738 16.7818 1.04143C17.184 1.90633 16.4585 2.17037 15.946 2.47263C14.3994 3.38304 13.1044 4.58476 11.8259 5.81018C11.3759 6.35642 11.3354 7.11207 10.9075 7.67835C9.82922 8.50136 9.52798 10.2639 7.75357 10.2476C7.08311 10.2621 6.41085 10.3186 5.76611 10.0655C5.49793 9.89796 5.38219 9.68855 5.61731 9.40814C7.39907 7.26684 8.33402 4.55747 10.3215 2.55455C10.4795 2.4016 10.4685 2.15034 10.4464 1.93002Z" fill="white"/>
<path d="M20.7457 28.7654C19.3809 29.379 17.9647 29.7687 16.453 29.7396C14.5334 28.8146 12.5809 27.9515 10.8377 26.7042C9.74943 25.9653 8.81101 25.0302 8.07135 23.9475C7.715 23.4013 7.3109 22.835 7.85645 22.1704C9.13124 21.9191 10.1672 22.5345 11.2289 23.0662C13.2991 25.4333 16.0048 26.6514 18.997 27.4198C19.6895 27.5983 20.9496 27.3397 20.7457 28.7654Z" fill="white"/>
<path d="M20.7458 28.7654C20.5327 27.9315 19.7484 28.0025 19.1643 27.8714C16.848 27.347 14.7043 26.4967 12.7645 25.0965C12.0702 24.5958 11.5118 24.0732 11.172 23.3066L11.3557 23.1336C12.9097 22.9807 14.2947 23.7564 15.7899 23.9202C16.124 24.0182 16.442 24.1636 16.7341 24.3517C18.3762 25.7247 20.4574 25.6719 22.3972 26.0943C22.9482 26.2163 24.0025 25.8867 23.7233 27.1249C22.8865 27.9122 21.8621 28.4766 20.7458 28.7654Z" fill="white"/>
<path d="M25.7457 19.0003C27.4412 18.9093 28.2384 17.3998 29.6032 16.4512C29.6436 17.114 29.6729 17.5837 29.7005 18.0535C29.6698 19.0976 29.3598 20.115 28.8022 21.0014C26.2306 22.4872 23.3982 22.835 20.4849 22.7804C20.3039 22.7698 20.1312 22.7015 19.9926 22.5855C19.6712 22.1176 19.6914 21.5823 19.6877 21.0524C19.689 20.7886 19.7305 20.5265 19.8108 20.2749C19.8718 20.1107 19.975 19.965 20.1102 19.8525C20.4157 19.691 20.7686 19.6407 21.1076 19.7104C21.6238 19.8579 22.1859 19.8179 22.6892 19.9836C23.9713 20.4115 24.9853 20.1238 25.7457 19.0003Z" fill="white"/>
<path d="M20.7587 2.01196C22.5147 2.36702 23.7252 3.58334 25.0276 4.65763C24.8329 5.48793 24.1091 5.24029 23.5783 5.32769C21.9251 5.59899 20.2205 5.73189 18.8446 6.85899C18.707 6.9539 18.556 7.02818 18.3965 7.07935C18.1513 7.13722 17.8966 7.1434 17.6489 7.09753C16.6625 6.80073 15.5071 6.98464 14.7246 6.10154C14.9285 4.92528 15.9296 4.50833 16.8076 3.98394C18.0714 3.22647 19.5224 2.82587 20.7587 2.01196Z" fill="white"/>
<path d="M18.4332 6.8517C19.6823 5.13102 21.6789 5.30033 23.4515 4.91978C23.9695 4.80871 24.5537 5.07456 25.0276 4.65759C26.4034 5.52613 27.3255 6.7734 28.0162 8.21003C27.399 8.82911 26.8259 8.37023 26.2509 8.12988C24.989 7.60366 23.7234 7.17942 22.3806 7.86952C20.8634 8.28831 19.5317 8.01703 18.4332 6.8517Z" fill="white"/>
<path d="M20.7586 2.0119C21.1113 2.67104 20.529 2.74023 20.1616 2.87679C18.1907 3.60512 16.3318 4.51553 14.7558 5.91939C13.5765 6.59674 12.524 6.17976 11.499 5.54064C12.9795 4.23329 14.3315 2.76026 16.1867 1.92632C16.3629 1.85343 16.5133 1.73051 16.6192 1.57305C16.7251 1.41559 16.7817 1.23062 16.7818 1.04138C18.1641 1.06492 19.5233 1.39663 20.7586 2.0119Z" fill="white"/>
<path d="M5.23901 20.3059C4.43446 19.9799 4.43073 19.1806 4.26541 18.5378C3.2037 14.3736 3.63361 10.3314 5.44843 6.43843C5.73131 5.83392 5.94068 5.24033 5.87456 4.57026C6.43664 4.02401 6.9767 3.44133 7.78309 3.23193C8.31211 3.79275 8.33409 3.81097 7.95386 4.51563C7.24483 5.79931 6.46418 7.03381 5.90577 8.40307C5.56227 9.24612 5.40983 10.0236 5.69455 10.8831C5.77169 13.363 5.73315 15.843 5.72396 18.3212C5.72213 19.0149 5.78272 19.7396 5.23901 20.3059Z" fill="white"/>
<path d="M20.1414 22.5928C21.7468 21.8644 23.5139 22.56 25.1689 21.9737C26.339 21.5585 27.487 20.9395 28.7985 21.0014C28.4259 22.23 27.7643 23.3533 26.868 24.2789C24.5866 24.9089 22.307 25.6044 20.0128 24.3153C19.6436 23.7144 19.583 23.1299 20.1414 22.5928Z" fill="white"/>
<path d="M7.8565 22.3324C8.60227 25.2275 11.128 26.3564 13.3506 27.7949C14.3756 28.4613 15.7917 28.5105 16.4567 29.7377C15.1139 29.8616 13.7786 29.9198 12.4836 29.4336C11.6588 27.966 10.0001 27.4053 8.91817 26.2272C7.6691 24.8634 6.10228 23.6889 5.87451 21.6514C6.7856 21.1835 7.34769 21.6714 7.8565 22.3324Z" fill="white"/>
<path d="M19.9963 24.2061C22.2795 24.9708 24.5793 24.0859 26.868 24.2826C25.878 25.2913 25.1414 26.5768 23.7252 27.1248C22.8802 25.9759 21.5374 26.5404 20.45 26.2618C19.0081 25.8976 17.557 25.6919 16.4548 24.583C17.5717 23.8656 18.8593 24.7359 19.9963 24.2061Z" fill="white"/>
<path d="M5.23339 10.5207C4.96888 8.19005 6.39066 6.46389 7.39359 4.58479C7.61585 4.166 8.31205 3.86922 7.78303 3.23375C8.53373 2.5657 9.45502 2.11476 10.4465 1.93005C11.0196 2.0211 11.297 2.27782 10.8139 2.77854C9.09639 4.56842 7.62687 6.51308 6.83885 8.8929C6.63313 9.51199 5.87082 9.36266 5.55305 9.82879C5.78449 10.2148 5.72383 10.4734 5.23339 10.5207Z" fill="white"/>
<path d="M61.1917 12.9952C60.8243 9.23152 58.6697 7.2395 54.9648 7.22129C51.19 7.2049 48.9307 9.25516 48.589 13.0479C48.521 13.8036 48.5798 14.572 48.5798 15.3331H48.4879C48.5522 16.3091 48.532 17.3014 48.6973 18.2592C49.3109 21.828 51.506 23.4813 55.3542 23.3575C58.7451 23.2446 60.7729 21.3327 61.1679 17.895C61.3499 16.2671 61.3579 14.6247 61.1917 12.9952ZM57.3967 18.0935C57.1781 19.4555 56.3075 20.2038 54.8987 20.1929C53.5798 20.182 52.7109 19.5137 52.4794 18.2045C52.1252 16.2779 52.1284 14.3034 52.4887 12.3779C52.7366 11.076 53.5908 10.4497 54.939 10.446C56.2873 10.4424 57.1231 11.1543 57.3637 12.4161C57.5474 13.3684 57.5235 14.3571 57.586 15.2621L57.3967 18.0935Z" fill="white"/>
<path d="M10.8268 7.52722C10.8353 8.18394 10.8433 8.84123 10.8506 9.49915C10.9738 9.62803 11.0513 9.79327 11.0712 9.96974C11.0911 10.1462 11.0523 10.3243 10.9608 10.477C10.7 10.7592 10.3583 10.8193 9.99649 10.8193C9.82499 10.8142 9.65448 10.7917 9.48767 10.7519C8.94763 10.5589 8.31395 10.6044 7.87494 10.1437C7.86758 10.0469 7.8528 9.95073 7.83081 9.85607C8.56556 9.89795 8.98073 9.50826 9.383 8.91103C9.73384 8.37206 9.90832 7.53997 10.8268 7.52722Z" fill="white"/>
<path d="M18.4332 6.85168C19.7098 7.32575 21.0327 7.66684 22.3805 7.8695C25.4885 8.46855 25.9827 10.6008 25.7659 13.2938C25.6153 15.1838 25.7421 17.0975 25.7457 19.0003C25.7347 20.5352 24.8364 20.9376 23.5249 20.5716C22.7075 20.3422 21.802 20.4988 21.0544 19.9981C23.4184 16.8717 22.4742 12.6128 19.0136 10.7938C18.6737 10.6117 18.3008 10.497 17.9996 10.2475C17.0518 9.00389 17.3898 7.94236 18.4662 6.98642L18.4332 6.85168Z" fill="black" stroke="white" stroke-miterlimit="10"/>
<path d="M5.23336 10.5207C5.34174 10.2894 5.452 10.06 5.56037 9.82874L7.82157 9.85607C7.9551 9.9734 8.06213 10.1173 8.13567 10.2785C8.3763 11.0978 8.04936 11.8863 7.97405 12.6856C7.68566 15.801 8.55816 18.5542 10.4391 21.0432C10.8983 21.6478 11.6606 22.225 11.1518 23.1772L11.1757 23.3065L7.85646 22.3324L5.86712 21.6532C5.27013 21.3855 5.23891 20.852 5.23157 20.3076L5.23336 10.5207Z" fill="black" stroke="white" stroke-miterlimit="10"/>
<path d="M11.499 5.54065L14.7576 5.91757C15.6595 6.55851 16.8663 6.2526 17.7774 6.86986C17.511 7.5982 16.8792 7.95146 16.2307 8.25736C14.8329 8.91832 13.3138 9.22785 11.8498 9.69762C11.42 9.836 10.9736 9.81049 10.6504 9.40445C10.3271 8.74531 10.3565 8.11715 10.8175 7.5272C10.9553 6.83165 10.9351 6.09054 11.499 5.54065Z" fill="black" stroke="white" stroke-miterlimit="10"/>
<path d="M7.86569 10.1438C8.43695 10.2075 9.05234 10.0273 9.55932 10.4479C7.97043 15.2786 9.69708 18.9129 13.639 21.8245C14.4931 22.4581 15.8175 22.7986 15.7918 24.2461C14.1845 24.1478 12.6838 23.5925 11.1519 23.1773C10.8929 21.7662 9.70441 20.9158 9.03211 19.7469C7.45792 17.0156 7.15852 14.1442 7.79958 11.118C7.84482 10.7952 7.8669 10.4697 7.86569 10.1438Z" fill="black" stroke="white" stroke-miterlimit="10"/>
<path d="M15.7862 24.246C14.4563 22.4853 12.3568 21.5931 10.9094 19.9361C8.58206 17.2723 8.06585 14.2916 8.9751 10.9923C9.03572 10.7756 9.35531 10.6281 9.55369 10.446C9.65116 10.4404 9.74866 10.4572 9.83846 10.4952C10.0589 11.8171 9.1882 12.9733 9.32597 14.3189C9.65844 17.5764 11.6018 19.4646 14.4251 20.7701C16.2215 21.6022 18.187 21.879 20.0073 22.6109L20.136 22.5855L19.9926 24.1987C19.6657 24.9434 19.0393 24.9598 18.3652 24.8579C17.726 24.7613 17.0794 24.6758 16.4493 24.5756L15.7862 24.246Z" fill="black" stroke="white" stroke-miterlimit="10"/>
<path d="M18.1081 10.1492C20.9111 10.5425 22.4486 12.9041 22.7002 15.4842C22.8288 16.7588 22.8252 18.0552 22.1602 19.2843C21.87 19.8196 21.5687 19.9908 21.0452 19.9981L20.1267 20.0727C20.0628 20.0208 20.0127 19.9542 19.9806 19.8786C19.9486 19.8031 19.9357 19.721 19.9431 19.6394C19.9717 19.4774 20.027 19.3212 20.1066 19.1769C22.0169 16.2381 20.9791 12.986 17.7535 11.6386C15.9681 10.8805 13.9823 10.7189 12.096 11.178C11.9135 11.1904 11.7303 11.1657 11.5578 11.1052C11.3853 11.0448 11.2272 10.9499 11.0931 10.8265C11.0595 10.7383 11.0525 10.6422 11.0731 10.55C11.0936 10.4579 11.1408 10.3737 11.2088 10.3076C13.4865 9.01667 15.7863 8.8728 18.1081 10.1492Z" fill="black" stroke="white" stroke-miterlimit="10"/>
<path d="M11.1757 10.4825C11.1757 10.5735 11.1757 10.6645 11.161 10.7556C11.128 10.9132 11.0769 11.0666 11.0086 11.2126C9.22133 14.8142 10.5218 17.7148 13.7969 19.3444C15.2764 20.0614 16.8782 20.4974 18.5195 20.6299C19.0504 20.6809 19.6345 20.5316 20.0827 20.9686C20.0607 21.5185 20.0373 22.0684 20.0129 22.6183C16.8902 22.6037 14.1827 21.3728 11.6919 19.6521C8.94759 17.7548 8.04568 13.3338 9.84397 10.497L10.7202 10.4406C10.7511 10.41 10.7884 10.3865 10.8295 10.3719C10.8706 10.3572 10.9144 10.3516 10.9578 10.3556C11.0013 10.3596 11.0434 10.3731 11.0811 10.395C11.1187 10.4169 11.151 10.4468 11.1757 10.4825Z" fill="black" stroke="white" stroke-miterlimit="10"/>
<path d="M20.0827 20.9686C17.0169 21.1889 14.1606 20.5808 11.8443 18.4941C9.31308 16.2126 9.0761 13.8565 10.8505 10.8157C11.6165 11.9082 11.2271 13.1373 11.2877 14.3081C11.3446 15.4006 11.3391 16.4931 12.252 17.3142C14.0779 19.2571 16.4365 19.9362 19.0081 20.0691C19.392 20.0892 19.7703 20.0145 20.0771 20.3168L20.0827 20.9686Z" fill="black" stroke="white" stroke-miterlimit="10"/>
<path d="M20.0771 20.3168C17.0022 20.7483 14.3425 19.9362 12.153 17.7167C12.2231 17.6319 12.3145 17.5668 12.418 17.5282C12.5215 17.4895 12.6334 17.4785 12.7426 17.4963C15.1911 18.2374 17.7425 18.638 20.1029 19.6813L20.1414 20.0801C20.1394 20.1629 20.1173 20.2441 20.0771 20.3168Z" fill="black" stroke="white" stroke-miterlimit="10"/>
<path d="M11.1758 10.4824L10.7202 10.4405L10.8415 9.49914C13.2441 8.85821 15.6908 8.32836 17.7774 6.86987L18.4663 6.98461C18.2275 8.02612 17.4175 9.00389 18.1081 10.1492C15.768 9.6521 13.4498 9.61934 11.1758 10.4824Z" fill="black" stroke="white" stroke-miterlimit="10"/>
<path d="M20.1047 19.6594C20.1047 18.1426 20.1047 16.6277 20.0864 15.1073C20.0698 13.8327 19.5206 12.9788 18.198 12.6201C16.1628 12.0738 14.1569 11.4292 12.1272 10.8265C15.7385 9.83055 19.7189 11.2326 21.0268 13.9638C21.4561 14.8977 21.5977 15.9364 21.4336 16.9497C21.2696 17.963 20.8072 18.9056 20.1047 19.6594Z" fill="black" stroke="white" stroke-miterlimit="10"/>
</g>
<defs>
<clipPath id="clip0_316:4568">
<rect width="99.1817" height="28.8529" fill="white" transform="translate(0.916748 0.968628)"/>
</clipPath>
</defs>
</svg>
