<svg width="101" height="27" viewBox="0 0 101 27" fill="none" xmlns="http://www.w3.org/2000/svg">
<g clip-path="url(#clip0_316:4634)">
<path d="M5.14578 17.7556V26.0179H0.631836V5.50466H5.01003L5.27939 6.74472C8.56304 4.58848 11.5708 4.82666 13.8387 7.3648C16.1547 9.95658 16.1854 14.6252 13.9022 17.217C11.6189 19.8088 8.81252 20.0341 5.14578 17.7556ZM11.2009 12.3918C11.2315 10.4844 9.75604 8.86023 8.00476 8.87095C6.42204 8.88168 5.01445 10.4007 4.94002 12.175C4.8634 14.0953 6.29292 15.7494 8.03982 15.7602C9.75169 15.7773 11.1702 14.2648 11.2009 12.3982V12.3918Z" fill="white"/>
<path d="M69.396 9.96097C69.3784 12.9325 67.5812 15.0114 65.4184 16.6463C60.3616 20.4696 61.154 20.6091 56.1344 16.6013C54.4597 15.2646 53.1879 13.2028 52.3079 11.2246C51.465 9.33011 52.1503 7.30694 53.9169 5.9617C55.6835 4.61646 57.6383 4.52416 59.5494 5.58833C60.425 6.07322 61.014 6.07965 61.9181 5.58833C65.5367 3.65951 69.3916 5.95315 69.396 9.96097Z" fill="white"/>
<path d="M100.641 13.9817H91.2101C91.5845 15.653 93.0753 16.1765 94.8288 15.6981C96.5253 15.2282 98.3095 15.0544 100.172 14.7369C99.809 17.7685 96.4508 20.0149 91.9938 19.2897C88.2724 18.6868 85.917 15.0137 86.6043 10.9779C87.2917 6.94224 90.5446 4.72594 94.8856 5.31381C98.9968 5.86092 101.155 9.01266 100.641 13.9817ZM96.1838 10.8278C95.8467 9.36029 94.9097 8.86681 93.6444 8.82604C92.3135 8.78313 91.5188 9.46972 91.0175 10.8278H96.1838Z" fill="white"/>
<path d="M31.3691 14.003H21.9341C22.5777 15.6851 23.9481 16.1614 25.5964 15.7194C27.3105 15.2624 29.099 15.0393 30.9641 14.6917C30.5263 18.0537 27.0238 19.8946 22.939 19.296C19.281 18.7617 16.8204 15.1551 17.4312 11.2245C18.101 6.90561 21.4831 4.5735 25.9883 5.33515C30.0162 6.01099 32.2294 9.46954 31.3691 14.003ZM21.875 10.7847H27.0851C26.6276 9.42234 25.8001 8.86876 24.5764 8.82371C23.2498 8.77222 22.4113 9.40303 21.875 10.7847Z" fill="white"/>
<path d="M70.7114 5.5389C70.8463 5.48292 70.9854 5.43709 71.1273 5.40166C75.3238 5.14849 75.3238 5.14845 76.5585 9.01037C77.1299 10.7997 77.7055 12.587 78.6403 14.3549L81.5233 5.43382H86.0701C86.0117 5.82421 85.9276 6.21052 85.8183 6.59028C84.4567 10.3342 83.0623 14.0652 81.7225 17.8156C81.4314 18.633 81.0658 18.9956 80.0895 19.0042C75.6653 19.0407 75.6609 19.0814 74.1482 14.9642C73.0055 11.8575 71.8848 8.73786 70.7114 5.5389Z" fill="white"/>
<path d="M41.544 15.6143V18.9764C40.7012 18.9764 39.9372 18.9764 39.1732 18.9764C35.8282 18.9227 34.5367 17.6461 34.528 14.3892C34.528 13.0804 34.6133 11.7631 34.4929 10.4629C34.4404 9.88364 33.8362 9.3644 33.7267 8.77438C33.5029 7.79867 33.4291 6.79562 33.5078 5.79853C33.5713 5.2364 34.3265 4.77297 34.4885 4.18939C34.6702 3.54574 34.5301 2.81414 34.5301 2.01172H38.9302C39.0003 3.08448 39.066 4.10359 39.1382 5.22999L41.5331 5.46602V8.73363L39.0725 8.97175C39.0725 10.8212 38.9214 12.6793 39.1644 14.4837C39.2366 15.0136 40.4297 15.3954 41.1105 15.846L41.544 15.6143Z" fill="white"/>
<path d="M45.156 0.84462C45.6442 0.816728 46.0316 0.780292 46.4104 0.776001C47.4064 0.776001 48.4024 0.776001 49.5714 0.776001V18.8669H45.156V0.84462Z" fill="white"/>
</g>
<defs>
<clipPath id="clip0_316:4634">
<rect width="100.083" height="25.2463" fill="white" transform="translate(0.631836 0.771729)"/>
</clipPath>
</defs>
</svg>
