<svg width="124" height="36" viewBox="0 0 124 36" fill="none" xmlns="http://www.w3.org/2000/svg">
<g clip-path="url(#clip0_316:4663)">
<path d="M55.2258 10.1473L53.5246 9.66708C53.7197 9.54962 53.9209 9.44246 54.1271 9.34614C55.3261 8.85828 56.3212 7.96848 56.9443 6.82706C58.1708 4.72929 59.8069 3.0616 62.0628 2.07711C63.4449 1.49352 64.9128 1.14244 66.4078 1.03799C67.3591 0.957223 68.3191 0.972534 69.2704 0.904863C69.7755 0.85921 70.2839 0.942536 70.7486 1.14703C71.2134 1.35152 71.6194 1.67056 71.9294 2.07487C73.1451 3.5265 73.1646 3.50038 71.9098 4.8778C71.4344 5.3735 70.9175 5.82702 70.3648 6.23337C70.1697 6.38617 69.8751 6.41017 69.6259 6.49312L69.576 6.36874C69.7713 6.09192 69.9444 5.79996 70.0939 5.49557C70.8155 3.73397 69.9118 2.16006 67.9853 1.86319C65.9396 1.54667 64.102 2.12078 62.7129 3.62262C61.5795 4.84505 60.6455 6.26392 59.692 7.64352C59.2586 8.27001 59.3692 8.42934 60.1016 8.43152C61.6532 8.43152 63.2027 8.37699 64.7521 8.36607C65.6709 8.36607 66.589 8.38718 67.5064 8.42939C67.7231 8.4403 67.9095 8.61052 68.111 8.70438C67.9845 8.88925 67.8462 9.06569 67.6971 9.23263C67.576 9.3423 67.4377 9.43088 67.2876 9.49462C66.1412 10.0425 65.2982 10.9244 64.6047 11.9613C63.1463 14.1442 62.1321 16.5017 61.7876 19.119C61.7249 19.658 61.7506 20.2037 61.8634 20.7343C62.0411 21.6075 62.7866 21.9764 63.5408 21.5071C64.1381 21.1391 64.6681 20.6702 65.1075 20.121C66.9325 17.8119 68.1215 15.0593 68.5552 12.1403C68.5823 11.9056 68.5933 11.6692 68.5878 11.433C68.6052 10.4704 68.7569 10.1997 69.6844 9.95742C71.3552 9.52084 73.041 9.1301 74.727 8.75245C75.2723 8.63043 75.8285 8.56462 76.387 8.55601C77.2538 8.54292 77.6136 8.87688 77.5313 9.73913C77.4467 10.6341 77.2365 11.5182 77.0762 12.4088C77.0501 12.5573 77.0068 12.7035 76.9699 12.8454L77.0913 12.9371C77.3578 12.7188 77.6396 12.5005 77.8888 12.256C78.6408 11.5247 79.3602 10.7585 80.1317 10.0512C80.9032 9.34396 81.6985 8.72401 82.7148 8.52318C83.3287 8.4096 83.9585 8.41635 84.5698 8.5429C85.4562 8.72627 85.7833 9.29592 85.623 10.2018C85.5296 10.8103 85.3735 11.4073 85.1571 11.9831C84.3163 14.0831 83.3866 16.146 82.5783 18.2568C82.0301 19.6866 81.5923 21.1622 81.1805 22.6379C81.018 23.2207 81.0895 23.8625 81.005 24.4715C80.9118 25.1526 80.5954 25.2988 80.0558 24.8862C78.4522 23.6616 77.7609 22.7033 78.4175 20.3742C78.9701 18.4096 79.8218 16.5432 80.5608 14.6419C80.966 13.5963 81.4124 12.566 81.8328 11.5269C81.9152 11.3459 81.9721 11.1541 82.0019 10.9572C82.0539 10.5206 81.7851 10.3023 81.4167 10.5402C81.0019 10.7948 80.6192 11.099 80.2769 11.4461C78.2247 13.5657 76.6188 16.0149 75.1604 18.5689C74.4381 19.8248 73.7194 21.0808 73.0043 22.3367C72.3541 23.4587 70.783 23.5809 69.8707 23.1967C70.3258 21.9503 70.7831 20.6973 71.2425 19.4465C72.1093 17.1042 72.9761 14.7685 73.8299 12.4197C73.993 11.9399 74.1034 11.4437 74.1593 10.9397C74.2395 10.3263 73.9231 10.0425 73.3206 10.167C72.8055 10.256 72.3018 10.4024 71.8188 10.6036C71.548 10.728 71.2035 11.0663 71.1926 11.3217C71.1298 12.8039 70.4905 14.0874 69.8924 15.3819C69.1079 17.0933 68.2735 18.7916 67.0383 20.2323C65.6081 21.9001 63.8766 23.1137 61.6337 23.3342C59.4667 23.5525 58.1665 22.5724 58.1817 20.42C58.2055 16.9885 59.5815 14.107 61.8547 11.6163C62.4008 11.0182 62.9773 10.4485 63.5884 9.82419C63.4505 9.80452 63.3116 9.7936 63.1723 9.79147C61.7854 9.86568 60.4007 9.95737 59.0138 10.0098C58.6454 10.0229 58.5803 10.2478 58.4828 10.5075C57.3711 13.5483 56.3158 16.6196 55.1174 19.6189C54.2788 21.7123 53.2602 23.7358 52.2569 25.7594C51.4442 27.3922 49.8732 27.8551 48.2414 28.1716C48.0387 28.1702 47.8366 28.1467 47.6389 28.1017C49.6087 25.5367 50.4561 22.5943 51.6111 19.7849L51.5093 19.6866C51.3338 19.8154 51.1539 19.9376 50.9827 20.073C49.6434 21.1208 48.3042 22.1664 46.7027 22.7995C45.4242 23.3037 44.1175 23.5983 42.7435 23.2949C42.031 23.1501 41.386 22.7718 40.9093 22.219C40.4326 21.6662 40.151 20.9698 40.1084 20.2388C39.9372 18.3615 40.4941 16.6546 41.3176 15.0196C42.698 12.28 44.5942 10.0316 47.4201 8.70662C48.4082 8.24384 49.4311 7.89668 50.5493 8.07786C51.6675 8.25904 52.3263 9.16935 52.0207 10.2455C51.8136 10.9552 51.489 11.6245 51.0607 12.2254C49.8146 13.9717 48.12 15.2422 46.3452 16.4166C45.6221 16.8914 44.949 17.4393 44.3363 18.0517C43.6689 18.7262 43.372 19.5687 43.7144 20.5423C44.0763 21.577 44.6635 21.9306 45.7189 21.6468C47.5748 21.1466 49.2623 20.1511 50.6034 18.7654C51.9379 17.4324 53.0016 15.8501 53.7349 14.1071C54.2571 12.8432 54.7013 11.5421 55.2258 10.1473ZM44.3233 16.6065C44.6592 16.3686 45.0038 16.1438 45.3289 15.8927C46.7916 14.7663 48.2176 13.5919 49.1386 11.9482C49.3982 11.4738 49.5706 10.9562 49.6477 10.4201C49.7366 9.82637 49.2881 9.48156 48.7203 9.6933C48.3006 9.84844 47.9159 10.0867 47.589 10.394C45.8381 12.0923 44.8629 14.2206 44.3233 16.6065Z" fill="white"/>
<path d="M112.54 25.2509C111.89 24.7139 111.168 24.2468 110.631 23.6181C110.334 23.271 110.301 22.6554 110.251 22.1489C110.195 21.5945 110.273 21.0269 110.251 20.4659C110.251 20.3175 110.098 20.1756 110.015 20.0293C109.901 20.1468 109.793 20.2707 109.692 20.4005C109.508 20.6602 109.385 20.9833 109.157 21.1907C108.098 22.1558 106.845 22.8808 105.484 23.3168C103.774 23.8734 101.8 22.5834 101.93 20.8589C101.918 20.7237 101.893 20.59 101.856 20.4594C101.624 20.6067 101.399 20.767 101.185 20.9397C100.149 21.8936 99.0175 22.686 97.6674 23.1226C95.7301 23.7294 93.9575 23.5766 92.5467 21.9154C92.3712 21.7102 92.2195 21.4788 92.0505 21.2605C91.4133 21.6971 90.9106 22.0377 90.4035 22.3782C89.3802 23.1084 88.1459 23.4776 86.8928 23.4282C85.3607 23.3474 84.4788 22.3084 84.7952 20.8087C84.9963 19.8165 85.2864 18.8447 85.662 17.9054C86.5808 15.6832 87.6232 13.5112 88.5377 11.2868C89.1878 9.70859 90.2301 8.76777 91.9659 8.68045C92.3386 8.66299 92.7092 8.58878 93.1795 8.52985C92.9108 9.21528 92.6897 9.81992 92.4405 10.4137C91.3245 13.0637 90.1824 15.705 89.088 18.3638C88.8387 19.0037 88.6529 19.667 88.5333 20.3438C88.3708 21.1624 88.8172 21.5509 89.5822 21.2715C90.6389 20.884 91.5483 20.1724 92.1826 19.237C92.2874 19.0496 92.3607 18.846 92.3993 18.6345C93.5132 14.4979 95.4331 10.9616 99.4985 9.02974C100.844 8.39233 102.27 8.11942 103.759 8.43157C103.988 8.47662 104.211 8.54994 104.422 8.64986C105.395 9.10827 105.692 10.0055 104.994 10.8175C104.444 11.4593 103.694 11.9242 103.005 12.4437C102.903 12.5223 102.704 12.4722 102.548 12.4809C102.529 12.3301 102.529 12.1777 102.548 12.0269C102.647 11.6056 102.825 11.1974 102.883 10.7717C103.009 9.84614 102.418 9.35056 101.572 9.71947C101.026 9.95355 100.528 10.2882 100.103 10.7061C97.7658 13.065 96.3463 16.1904 96.1028 19.5142C95.9381 21.4395 96.8483 22.0376 98.5711 21.2256C100.465 20.3327 101.822 18.8527 102.905 17.078C103.724 15.7355 104.489 14.3538 105.399 13.0746C107.894 9.56669 111.383 8.2395 115.585 8.56694C116.018 8.59968 116.451 8.64111 116.885 8.68259C117.249 8.71533 117.405 8.92057 117.297 9.27201C117.1 9.98526 116.866 10.6877 116.597 11.3764C115.275 14.4564 114.083 17.5845 113.379 20.8676C113.112 22.101 113.036 23.3758 112.867 24.6288C112.836 24.802 112.796 24.9733 112.746 25.1418L112.54 25.2509ZM105.592 20.3983C105.718 20.6777 105.794 21.1929 106.026 21.2867C106.318 21.4024 106.832 21.2671 107.098 21.0532C107.816 20.5096 108.466 19.8807 109.034 19.1803C109.745 18.223 110.376 17.208 110.921 16.1459C111.914 14.2403 112.83 12.2954 113.758 10.357C113.855 10.154 113.903 9.74136 113.803 9.6715C113.574 9.54404 113.304 9.51119 113.051 9.57984C111.696 9.92815 110.49 10.7103 109.614 11.8086C108.016 13.7306 106.803 15.9463 106.041 18.3332C105.839 18.9641 105.753 19.6343 105.588 20.3983H105.592Z" fill="white"/>
<path d="M24.4407 2.49186L22.0245 2.62499C19.7036 2.76251 17.3783 2.87821 15.1181 3.49815C13.8915 3.83432 12.7192 4.29708 11.7267 5.12222C10.2574 6.34247 9.45781 7.90769 9.4318 9.83956C9.4318 10.1255 9.51849 10.4115 9.54016 10.6996C9.57916 11.2039 9.36462 11.385 8.93988 11.1362C7.11956 10.0993 6.03171 8.45561 7.16074 6.36002C8.25087 4.31898 10.0927 2.7905 12.2901 2.10335C14.0693 1.51397 15.9286 1.32835 17.7793 1.26505C24.0637 1.04676 30.3308 0.89619 36.6066 0.721558C36.9251 0.721558 37.2437 0.721558 37.6901 0.721558C36.962 1.4441 36.249 1.94173 35.3843 2.06615C33.9953 2.26698 32.5932 2.38049 31.1954 2.50274C30.2094 2.59224 29.2169 2.6338 28.2287 2.70802C27.6396 2.74207 27.0696 2.93081 26.5754 3.25556C26.0812 3.58031 25.6799 4.02974 25.4116 4.55912C24.4756 6.23052 23.6285 7.95087 22.874 9.71293C21.3939 13.3082 20.0806 16.971 18.6092 20.5707C17.8865 22.3246 17.0556 24.0314 16.1214 25.6809C15.0249 27.628 13.1027 28.0231 10.9335 28.1192C11.1069 27.8048 11.2196 27.5932 11.3388 27.3836C11.8784 26.4471 12.5242 25.5587 12.9402 24.5698C14.8126 20.1385 16.6047 15.6723 18.4597 11.2322C19.0253 9.88319 19.6711 8.56472 20.3299 7.25716C21.0336 5.88023 22.0224 4.67132 23.2294 3.71207C23.6628 3.36281 24.0746 2.99172 24.4971 2.62062L24.4407 2.49186Z" fill="white"/>
<path d="M43.9442 2.7124C43.6603 3.53099 43.4436 4.27311 43.1489 4.98474C41.4651 9.04276 39.7141 13.0724 38.0888 17.1544C37.4105 18.8571 36.9403 20.6471 36.4658 22.4284C36.2837 23.1138 36.3639 23.8691 36.2923 24.5894C36.2382 25.1483 36.0367 25.2443 35.5448 24.9562C34.2142 24.1965 33.3408 23.1661 33.499 21.5028C33.5467 21.0051 33.499 20.5009 33.499 19.8547C32.9876 20.2476 32.578 20.5576 32.1706 20.872C30.8314 21.9001 29.4271 22.8104 27.7693 23.2339C25.975 23.6923 24.3952 23.3736 23.2185 21.8281C22.9726 21.5206 22.8219 21.1472 22.7851 20.7541C22.6529 15.502 26.4367 9.73917 31.3689 8.27007C31.7135 8.16452 32.0645 8.08136 32.4198 8.02119C32.7765 7.95349 33.1448 7.98326 33.4863 8.10742C33.8277 8.23158 34.13 8.44561 34.3616 8.72723C34.5931 9.00884 34.7456 9.34772 34.8031 9.70879C34.8607 10.0698 34.8212 10.4399 34.6887 10.7804C34.4927 11.2674 34.2253 11.7221 33.8956 12.1294C32.3676 14.0956 30.4597 15.7293 28.2873 16.9318C26.4691 17.9097 26.4409 18.0909 26.5536 20.4244C26.5731 20.623 26.6064 20.82 26.6533 21.0139C26.7465 21.4679 27.0412 21.7626 27.4854 21.6906C28.1507 21.5814 28.8507 21.4723 29.4358 21.1819C31.4758 20.1748 33.1674 18.572 34.29 16.5825C35.5794 14.3275 36.6586 11.9504 37.8072 9.61467C38.6046 7.99277 39.3848 6.36215 40.1324 4.71624C40.88 3.11617 42.2344 2.75824 43.9442 2.7124ZM32.4588 10.7629C32.4588 9.73697 31.8586 9.35276 31.1716 9.70857C30.9273 9.82776 30.7069 9.9913 30.5215 10.191C30.0599 10.7214 29.5485 11.2366 29.2083 11.8434C28.504 13.0986 27.8907 14.4062 27.2579 15.7051C27.1907 15.8426 27.2969 16.0652 27.3229 16.2464C27.4724 16.2137 27.6588 16.2289 27.7693 16.1438C29.3643 14.893 30.931 13.6028 31.9994 11.8347C32.1818 11.492 32.3326 11.1333 32.4502 10.7629H32.4588Z" fill="white"/>
<path d="M123.128 35.3141C122.944 35.3997 122.749 35.46 122.549 35.4931C119.936 35.5434 117.32 35.5958 114.703 35.6154C107.615 35.6722 100.525 35.7187 93.433 35.755C82.4273 35.8016 71.4216 35.8344 60.4159 35.8533C50.709 35.8737 41.0019 35.8846 31.295 35.886C24.9975 35.886 18.7023 35.8642 12.4048 35.7921C8.88988 35.7507 5.37278 35.5914 1.85782 35.4757C1.39711 35.4647 0.940603 35.3846 0.503418 35.2378C1.10802 35.1897 1.71477 35.1111 2.31938 35.0958C7.76734 34.9648 13.2131 34.7989 18.6589 34.7313C27.5438 34.6243 36.4483 34.5697 45.3419 34.513C52.0366 34.4751 58.7306 34.4606 65.4239 34.4694C73.1632 34.4825 80.9031 34.5181 88.6438 34.5763C95.7518 34.6287 102.86 34.7014 109.968 34.7946C113.972 34.8426 117.986 34.9234 121.982 34.9954C122.35 34.9954 122.716 35.0565 123.085 35.0893C123.1 35.1657 123.115 35.2399 123.128 35.3141Z" fill="white"/>
<path d="M93.0863 5.79019C92.9077 5.70138 92.7492 5.57663 92.6205 5.42353C92.0614 4.51981 92.6335 3.06817 93.6455 2.74947C94.4321 2.50062 95.1126 2.96775 95.1624 3.77761C95.2296 4.69225 94.1937 5.79456 93.0863 5.79019Z" fill="white"/>
</g>
<defs>
<clipPath id="clip0_316:4663">
<rect width="122.625" height="35.1644" fill="white" transform="translate(0.503418 0.721558)"/>
</clipPath>
</defs>
</svg>
