<svg width="74" height="58" viewBox="0 0 74 58" fill="none" xmlns="http://www.w3.org/2000/svg">
<g clip-path="url(#clip0_316:4649)">
<path d="M26.1354 22.3333C26.5163 21.7163 26.815 20.6893 27.2982 20.591C27.8771 20.474 28.6842 21.0553 29.2681 21.5011C29.9712 22.04 30.5249 22.7739 31.1793 23.3858C32.1156 24.2604 32.2464 25.0807 31.2078 25.9909C30.5014 26.6112 29.9376 27.4061 29.1943 27.9722C28.6188 28.4111 27.8285 28.9027 27.2076 28.8196C26.7949 28.7654 26.5129 27.7332 26.0448 26.9179C23.8901 26.9325 21.7913 26.2257 20.0764 24.9078C16.9957 22.5197 15.5863 18.591 16.5913 14.8063C17.6702 10.7385 20.3465 8.41147 24.387 7.51827C25.0699 7.36912 25.8552 6.90302 26.2512 6.33185C31.1373 -0.617182 40.2334 -1.57135 46.3763 4.22516C46.8881 4.67091 47.516 4.95855 48.1852 5.0539C53.9724 5.90981 57.5145 9.60636 58.0967 15.4842C58.4927 19.4842 55.6235 24.2977 51.9455 25.8146C50.5444 26.3925 49.3262 26.0298 48.8245 24.8892C48.3094 23.718 48.7255 22.7706 50.0829 22.0231C53.0025 20.4197 54.4304 17.5893 53.818 14.6232C53.2257 11.7538 50.885 9.36912 47.7875 9.42336C45.6817 9.45556 44.6145 8.60645 43.2907 7.24376C38.9515 2.77435 31.5015 4.28104 29.0399 10.0674C28.4761 11.3945 27.9409 11.8996 26.4005 11.6962C23.3131 11.2861 20.61 13.7554 20.4791 16.7944C20.3449 19.9333 22.751 22.6299 25.7092 22.6451C25.9352 22.6287 26.1596 22.5947 26.3804 22.5435L26.1354 22.3333Z" fill="white"/>
<path d="M34.1323 21.2401C34.1323 19.252 34.1793 17.2639 34.1172 15.2792C34.0769 14.0199 34.5098 13.4504 35.8119 13.4945C37.5888 13.5572 39.3808 13.3928 41.146 13.5504C41.985 13.625 42.8744 14.0911 43.5942 14.5962C45.8208 16.1572 46.6145 18.3249 46.3141 21.0774C46.0926 23.135 46.2436 25.2367 46.2722 27.318C46.289 28.5807 45.7285 29.1061 44.4835 29.0891C41.6276 29.0518 38.7706 29.0518 35.9126 29.0891C34.5887 29.1061 34.0669 28.5399 34.1071 27.2078C34.1709 25.2231 34.1238 23.2333 34.1238 21.2469L34.1323 21.2401ZM42.532 20.1571C43.0908 20.1266 43.6714 20.1791 44.1965 20.03C44.3523 19.9577 44.4877 19.8472 44.5905 19.7087C44.6934 19.5702 44.7604 19.408 44.7855 19.2368C44.7855 19.0012 44.3123 18.5487 44.1026 18.5792C41.8323 18.9097 40.8004 18.0876 41.2131 15.6825C41.25 15.4639 40.8541 15.0385 40.5773 14.9385C40.3893 14.8708 39.9446 15.1351 39.8104 15.3673C38.5419 17.5622 40.0235 20.13 42.532 20.1571Z" fill="white"/>
<path d="M27.6572 51.526C26.6001 52.0904 25.8014 52.7311 24.902 52.9565C22.417 53.5785 20.0142 52.2785 19.4353 49.7667C19.0695 48.1769 19.0192 46.3431 19.4269 44.7787C20.2793 41.5059 23.9573 40.4347 26.6537 42.4449C26.8735 42.6143 27.0783 42.7956 27.4038 43.0651C27.5146 42.8414 27.5515 42.6652 27.6572 42.5652C28.0348 42.216 28.4341 41.8872 28.8318 41.5601C29.1506 42.0211 29.7211 42.4686 29.7446 42.9431C29.8436 45.0702 29.7865 47.2058 29.7865 49.3379C29.7865 51.4226 29.7865 53.5073 29.7865 55.592C29.7865 56.3852 29.8066 57.209 28.7462 57.2463C27.6555 57.2853 27.6521 56.4564 27.6589 55.6582C27.6639 54.3141 27.6572 52.9701 27.6572 51.526ZM27.6572 47.3075C27.6488 44.5956 26.7326 43.399 24.6536 43.3617C22.724 43.3278 21.2978 45.0058 21.3096 47.2905C21.3247 49.5277 22.7022 51.1718 24.5547 51.1667C26.6588 51.1582 27.6689 49.9023 27.6605 47.3075H27.6572Z" fill="white"/>
<path d="M7.73839 52.0159C5.53862 53.4548 3.13581 53.4887 1.65587 51.9633C0.578639 50.8515 0.43606 48.5854 1.36731 47.3567C2.67107 45.638 4.98662 45.5262 8.121 47.0855C8.2888 45.9363 8.55224 44.8143 7.5438 43.9499C6.41288 42.9804 5.1074 43.1228 3.81204 43.5516C3.46303 43.6669 3.16609 44.0313 2.82379 44.0601C2.42277 44.099 1.99991 43.9007 1.58713 43.8058C1.69452 43.4296 1.69117 42.9499 1.92272 42.694C3.38756 41.1025 7.90454 40.9872 9.37274 42.5991C9.92142 43.2007 10.2821 44.1685 10.3425 44.999C10.467 46.9871 10.4766 48.9809 10.3711 50.9701C10.3409 51.6481 9.91803 52.2905 9.67473 52.9498L7.73839 52.0159ZM5.54708 47.3567C4.05204 47.3567 2.95969 48.2804 2.97815 49.5498C2.99325 50.7464 4.05871 51.6701 5.46482 51.7023C7.08738 51.7413 8.2586 50.8091 8.25357 49.4837C8.24686 48.1939 7.19313 47.3651 5.54708 47.3567Z" fill="white"/>
<path d="M61.1891 47.8938C61.1203 50.1294 62.9358 51.6633 65.1272 51.3362C65.8554 51.2277 66.5367 50.8277 67.2649 50.6836C67.6005 50.6209 68.2717 50.8192 68.3002 50.9904C68.369 51.3616 68.2532 51.9734 67.9848 52.1666C66.4746 53.2531 62.4073 53.6768 60.377 51.6158C58.3719 49.5819 58.0513 46.0532 59.7645 43.6786C60.5567 42.6061 61.7023 41.8549 62.9945 41.5606C64.2868 41.2663 65.6407 41.4483 66.8119 42.0736C68.5771 43.0194 69.3573 44.6532 69.5469 46.5939C69.6426 47.5684 69.1023 47.9261 68.1694 47.9074C66.3421 47.8735 64.5148 47.8955 62.6858 47.8938H61.1891ZM61.1723 46.3498H67.3405C67.2314 44.277 65.9696 43.1057 64.0802 43.182C62.305 43.2549 61.1589 44.4566 61.1757 46.3498H61.1723Z" fill="white"/>
<path d="M39.2335 51.6803C38.1126 52.7091 36.6243 53.2379 34.8876 53.0362C33.3171 52.8667 32.2482 51.8972 32.1928 50.2922C32.109 47.8295 32.1056 45.3601 32.1928 42.8974C32.208 42.4466 32.8238 42.0177 33.161 41.5787C33.5453 42.0245 34.2265 42.4483 34.26 42.9178C34.3892 44.8059 34.2953 46.7091 34.3289 48.6057C34.3607 50.3904 35.1679 51.204 36.8022 51.1634C38.507 51.121 39.7721 49.9921 39.7805 48.482C39.7923 46.7753 39.8006 45.0669 39.7805 43.3601C39.7688 42.5008 39.7805 41.6008 40.893 41.6245C42.0373 41.6482 41.9198 42.6211 41.9182 43.4313C41.9182 45.9922 41.9047 48.5549 41.9182 51.1159C41.9182 51.8853 42.0172 52.8532 41.0356 52.8904C40.502 52.9159 39.9533 52.1955 39.2335 51.6803Z" fill="white"/>
<path d="M52.9353 50.2989C53.8464 47.9023 54.5947 45.9244 55.3515 43.9498C55.5713 43.3753 55.7072 42.7058 56.0965 42.2821C56.4002 41.9516 57.1033 41.7177 57.5043 41.8499C57.7879 41.9448 58.1033 42.8109 57.9691 43.1685C56.8952 46.0498 55.7726 48.9091 54.5242 51.7141C54.2742 52.2785 53.4487 52.8632 52.8463 52.9005C52.3295 52.9378 51.4889 52.3412 51.254 51.8141C50.009 49.009 48.8713 46.1514 47.8041 43.2701C47.6582 42.8786 48.1163 42.2532 48.2958 41.7448C48.8093 42.0159 49.6012 42.1601 49.7874 42.5787C50.712 44.6465 51.4738 46.7887 52.3043 48.9022C52.4369 49.2514 52.6047 49.5785 52.9353 50.2989Z" fill="white"/>
<path d="M15.4821 42.86C15.9335 42.5618 16.5392 41.9787 17.2557 41.755C17.6634 41.6279 18.2507 42.094 18.7575 42.2822C18.4873 42.7194 18.296 43.4482 17.9369 43.5465C14.5811 44.4567 15.0156 44.9448 14.967 48.1345C14.9485 49.2667 15.0827 50.4159 14.9384 51.5243C14.8713 52.0412 14.3025 52.4921 13.9619 52.9734C13.5659 52.5395 12.8427 52.1175 12.826 51.67C12.7236 48.7447 12.7336 45.8143 12.8142 42.8872C12.8259 42.4584 13.534 41.6432 13.6968 41.7008C14.2975 41.8991 14.8059 42.3872 15.4821 42.86Z" fill="white"/>
<path d="M44.2722 47.1854C44.2722 45.7633 44.1917 44.3329 44.3175 42.9211C44.3595 42.4516 44.9283 42.0295 45.2572 41.5854C45.6465 42.0244 46.3563 42.4533 46.3714 42.9041C46.4704 45.8397 46.4603 48.7837 46.3714 51.7175C46.3579 52.1497 45.7002 52.5649 45.3512 52.9819C44.9954 52.5666 44.3695 52.1734 44.331 51.7293C44.2034 50.2243 44.2823 48.6989 44.2823 47.182L44.2722 47.1854Z" fill="white"/>
<path d="M71.2668 47.2312C71.2668 45.8092 71.1762 44.3804 71.3154 42.9736C71.3624 42.4855 71.9765 42.055 72.3323 41.5991C72.693 42.0618 73.3474 42.5144 73.3642 42.989C73.4615 45.8279 73.4682 48.6719 73.3642 51.5091C73.3457 52.0176 72.6376 52.4887 72.2466 52.9769C71.9245 52.482 71.3725 52.0091 71.3255 51.4888C71.1946 50.0803 71.2802 48.6515 71.2802 47.2312H71.2668Z" fill="white"/>
<path d="M45.0324 40.189C44.6834 39.6805 44.0256 39.1296 44.0692 38.6534C44.1128 38.1771 44.8394 37.7161 45.2673 37.2517C45.7438 37.7229 46.4855 38.1331 46.6096 38.6839C46.7019 39.0924 45.9855 39.6838 45.6297 40.194L45.0324 40.189Z" fill="white"/>
<path d="M73.7602 38.9822C73.2568 39.3211 72.688 40.0092 72.25 39.933C71.7215 39.8381 71.3053 39.1075 70.8389 38.6516C71.3339 38.1872 71.7735 37.4805 72.349 37.3449C72.7282 37.255 73.2971 37.9856 73.782 38.3483L73.7602 38.9822Z" fill="white"/>
</g>
<defs>
<clipPath id="clip0_316:4649">
<rect width="73.0338" height="56.8041" fill="white" transform="translate(0.749756 0.443848)"/>
</clipPath>
</defs>
</svg>
