<svg width="101" height="40" viewBox="0 0 101 40" fill="none" xmlns="http://www.w3.org/2000/svg">
<g clip-path="url(#clip0_316:4602)">
<path d="M66.9871 30.0962C69.2291 30.4127 71.4111 30.9594 73.5987 30.9594C76.2125 30.9795 77.6023 29.1812 77.3621 26.5715C76.4351 27.2185 75.3683 27.6343 74.25 27.7844C73.1316 27.9345 71.9938 27.8146 70.9306 27.4347C67.7049 26.3844 66.0692 23.9674 65.5973 20.7707C65.0425 17.0992 66.0349 13.8938 69.152 11.6553C72.6093 9.17501 77.3192 9.69879 79.9015 12.7718C81.1278 14.2046 81.8142 16.0257 81.8404 17.9164C81.9034 21.1247 81.972 24.3416 81.8404 27.5469C81.686 31.345 79.3495 34.1245 75.6319 34.723C73.8044 34.9856 71.9444 34.9027 70.1471 34.4784C67.4991 33.8856 66.8184 32.6426 66.9871 30.0962ZM77.7081 19.0357C77.4708 17.3669 77.2105 15.8275 75.6606 15.0075C75.0639 14.6927 74.3938 14.5463 73.7212 14.5837C73.0485 14.6212 72.3985 14.8412 71.84 15.2203C70.2358 16.2159 69.5781 18.279 70.0499 20.4226C70.3788 21.9217 71.1309 23.0121 72.6952 23.2538C74.308 23.507 75.7835 23.1158 76.6843 21.6397C77.1619 20.8628 77.3764 19.9248 77.7081 19.0357Z" fill="white"/>
<path d="M5.0206 16.2389C7.11676 16.2389 8.275 17.1769 8.66391 19.2313C9.07571 21.4152 9.5847 23.5473 11.2033 25.2075C13.0878 27.144 15.4671 27.9496 18.0665 27.8921C23.8431 27.7684 28.2185 30.2918 31.653 34.7747C32.7225 36.173 32.6881 37.8247 31.5185 38.9066C30.286 40.0575 28.5759 39.9338 27.3204 38.6189C26.9287 38.2045 26.557 37.7557 26.191 37.3241C24.1663 34.8898 21.5726 33.7504 18.4269 33.7302C14.023 33.7043 10.0565 32.4728 6.95089 29.1553C3.98254 25.9902 2.91023 22.0828 2.87877 17.8244C2.85017 16.2188 4.12266 16.4173 5.0206 16.2389Z" fill="white"/>
<path d="M30.7993 20.8114C30.399 21.6228 30.2016 22.7765 29.5496 23.1765C28.2656 23.962 26.0178 23.2946 25.3229 22.1235C24.9344 21.4167 24.674 20.646 24.5537 19.8475C23.6586 14.6683 20.573 11.791 15.3712 11.8255C9.60897 11.86 5.20507 9.46314 1.73913 5.00039C0.595251 3.54446 0.638124 1.83532 1.85921 0.744806C3.13749 -0.385986 4.85905 -0.17303 6.17164 1.21097C7.21829 2.31586 8.23917 3.47251 9.43166 4.40189C11.116 5.71971 13.175 5.91543 15.2569 5.97585C20.4987 6.12547 24.9283 7.93537 27.9167 12.5017C29.5239 14.9589 30.2874 17.701 30.4361 20.6272L30.7993 20.8114Z" fill="white"/>
<path d="M51.5049 11.031C51.5049 14.3428 51.4877 17.6863 51.5049 21.0298C51.4805 21.6959 51.5774 22.3611 51.7908 22.9922C52.0972 23.7149 52.6405 24.3099 53.3302 24.6784C54.0198 25.0469 54.8141 25.1664 55.5808 25.017C56.3474 24.8676 57.04 24.4583 57.543 23.8574C58.0461 23.2564 58.3292 22.5002 58.3452 21.7147C58.3967 19.3178 58.3452 16.921 58.3681 14.5213C58.3681 11.6613 59.6178 10.5793 62.5433 10.8929C62.6005 10.9965 62.7291 11.1144 62.7291 11.2353C62.7291 15.0679 62.8664 18.9121 62.6348 22.7303C62.4088 26.4565 59.2375 29.2274 55.3226 29.5612C51.911 29.8489 48.0131 27.3945 47.5041 23.9331C46.9779 20.3709 47.101 16.6821 47.244 13.0624C47.3383 11.2411 49.2 10.4814 51.5049 11.031Z" fill="white"/>
<path d="M89.656 11.0051C89.656 13.7357 89.656 16.498 89.656 19.2631C89.623 20.1716 89.6402 21.0812 89.7075 21.9878C89.7888 22.8562 90.198 23.6601 90.8508 24.2339C91.5036 24.8078 92.3502 25.1079 93.2163 25.0724C93.6468 25.0751 94.0736 24.9923 94.4722 24.8288C94.8708 24.6653 95.2336 24.4244 95.5396 24.1197C95.8455 23.815 96.0888 23.4526 96.2555 23.0532C96.4221 22.6538 96.5088 22.2254 96.5107 21.7923C96.5822 19.4012 96.5278 17.0044 96.5421 14.5989C96.5421 11.6813 97.8005 10.5937 100.989 10.9073V13.8248C100.989 16.4144 101.009 19.004 100.989 21.5936C100.949 26.0592 97.4687 29.5869 93.1277 29.5955C91.0545 29.5918 89.0667 28.7648 87.5962 27.2945C86.1258 25.8241 85.2915 23.8291 85.275 21.7432C85.2264 19.2543 85.2492 16.7626 85.275 14.2622C85.2864 11.5805 86.762 10.4497 89.656 11.0051Z" fill="white"/>
<path d="M43.6807 10.9705V28.6633C41.4359 29.4718 39.2197 28.0417 39.3027 25.3283C39.4113 21.6885 39.3026 18.0429 39.3341 14.3945C39.3512 11.5804 40.7724 10.4526 43.6807 10.9705Z" fill="white"/>
<path d="M16.7568 16.7367C19.6022 16.7367 19.7538 16.8892 19.7567 19.7291C19.7567 20.1607 19.7567 20.5924 19.7567 21.0211C19.7818 21.3075 19.7457 21.5959 19.6509 21.867C18.547 23.8467 16.6739 22.7706 15.1411 22.9144C14.0687 23.0151 13.5683 22.1778 13.5511 21.1161C13.5511 20.7334 13.5511 20.3507 13.5511 19.9652C13.5425 16.8605 13.6684 16.7339 16.7568 16.7367Z" fill="white"/>
<path d="M43.7579 6.94813C43.7579 9.00255 43.5778 9.18671 41.5931 9.18958C39.5056 9.18958 39.3254 9.01119 39.3283 6.88772C39.3311 4.76424 39.4884 4.65203 41.6389 4.65778C43.595 4.67505 43.7579 4.85055 43.7579 6.94813Z" fill="white"/>
</g>
<defs>
<clipPath id="clip0_316:4602">
<rect width="100.083" height="39.6727" fill="white" transform="translate(0.916992 0.0164795)"/>
</clipPath>
</defs>
</svg>
