<svg width="48" height="48" viewBox="0 0 48 48" fill="none" xmlns="http://www.w3.org/2000/svg">
<g opacity="0.2">
<path d="M12.34 6.68005L9.12 3.43994L3.46 9.09998L6.7 12.34C6.24291 13.1865 5.8743 14.0779 5.6 15H1V23H5.58C5.90082 23.9049 6.26797 24.7928 6.68 25.66L3.44 28.9L9.1 34.5601L12.34 31.3199C13.1865 31.777 14.0779 32.1457 15 32.42V37H23V32.42C23.9221 32.1457 24.8135 31.777 25.66 31.3199L28.9 34.5601L34.56 28.9L31.32 25.6801C31.7771 24.8335 32.1457 23.9421 32.42 23.02H37V15.02H32.42C32.1457 14.0979 31.7771 13.2065 31.32 12.36L34.56 9.12L28.9 3.45996L25.68 6.69995C24.8335 6.24286 23.9421 5.87427 23.02 5.59998V1H15.02V5.57996C14.0979 5.85426 13.2065 6.22297 12.36 6.68005V6.68005" stroke="black" stroke-width="2" stroke-linecap="round" stroke-linejoin="round"/>
<path d="M39.2196 15.8799L44.6596 21.3198L41.5396 24.4398C41.9745 25.257 42.3295 26.1144 42.5996 26.9999H46.9996V33.9999L42.8196 34.2399L41.6796 36.5798L45.4996 39.6399L40.6796 44.7999L37.5596 41.9999C36.7381 42.3991 35.8811 42.7205 34.9996 42.9598V46.9598H26.9996V42.9598C26.2122 42.7176 25.449 42.403 24.7196 42.0199L21.9996 44.8999L17.0996 39.9999" stroke="black" stroke-width="2" stroke-linecap="round" stroke-linejoin="round"/>
<path d="M19 25C22.3137 25 25 22.3137 25 19C25 15.6863 22.3137 13 19 13C15.6863 13 13 15.6863 13 19C13 22.3137 15.6863 25 19 25Z" stroke="black" stroke-width="2" stroke-linecap="round" stroke-linejoin="round"/>
</g>
</svg>
