<svg width="24" height="28" viewBox="0 0 24 28" fill="none" xmlns="http://www.w3.org/2000/svg">
<path d="M18.6667 19.3333H21.3333V3.33334H8V6.00001H18.6667V19.3333ZM18.6667 22V26C18.6667 26.736 18.0667 27.3333 17.324 27.3333H1.34267C1.16684 27.3344 0.99253 27.3007 0.829763 27.2342C0.666997 27.1677 0.518978 27.0696 0.394211 26.9457C0.269445 26.8218 0.170391 26.6745 0.102739 26.5122C0.0350875 26.3499 0.000172499 26.1758 0 26L0.00400003 7.33334C0.00400003 6.59734 0.604 6.00001 1.34667 6.00001H5.33333V2.00001C5.33333 1.64638 5.47381 1.30724 5.72386 1.0572C5.97391 0.807147 6.31304 0.666672 6.66667 0.666672H22.6667C23.0203 0.666672 23.3594 0.807147 23.6095 1.0572C23.8595 1.30724 24 1.64638 24 2.00001V20.6667C24 21.0203 23.8595 21.3594 23.6095 21.6095C23.3594 21.8595 23.0203 22 22.6667 22H18.6667ZM2.67067 8.66667L2.66667 24.6667H16V8.66667H2.67067ZM5.33333 19.3333H11.3333C11.5101 19.3333 11.6797 19.2631 11.8047 19.1381C11.9298 19.0131 12 18.8435 12 18.6667C12 18.4899 11.9298 18.3203 11.8047 18.1953C11.6797 18.0702 11.5101 18 11.3333 18H7.33333C6.44928 18 5.60143 17.6488 4.97631 17.0237C4.35119 16.3986 4 15.5507 4 14.6667C4 13.7826 4.35119 12.9348 4.97631 12.3096C5.60143 11.6845 6.44928 11.3333 7.33333 11.3333H8V10H10.6667V11.3333H13.3333V14H7.33333C7.15652 14 6.98695 14.0702 6.86193 14.1953C6.7369 14.3203 6.66667 14.4899 6.66667 14.6667C6.66667 14.8435 6.7369 15.0131 6.86193 15.1381C6.98695 15.2631 7.15652 15.3333 7.33333 15.3333H11.3333C12.2174 15.3333 13.0652 15.6845 13.6904 16.3096C14.3155 16.9348 14.6667 17.7826 14.6667 18.6667C14.6667 19.5507 14.3155 20.3986 13.6904 21.0237C13.0652 21.6488 12.2174 22 11.3333 22H10.6667V23.3333H8V22H5.33333V19.3333Z" fill="black"/>
</svg>
