<svg width="32" height="32" viewBox="0 0 32 32" fill="none" xmlns="http://www.w3.org/2000/svg">
<path d="M22.6667 21.3333H25.3333V5.33329H12V7.99996H22.6667V21.3333ZM22.6667 24V28C22.6667 28.736 22.0667 29.3333 21.324 29.3333H5.34267C5.16684 29.3343 4.99253 29.3006 4.82976 29.2341C4.667 29.1676 4.51898 29.0696 4.39421 28.9457C4.26945 28.8218 4.17039 28.6745 4.10274 28.5122C4.03509 28.3499 4.00017 28.1758 4 28L4.004 9.33329C4.004 8.59729 4.604 7.99996 5.34667 7.99996H9.33333V3.99996C9.33333 3.64634 9.47381 3.3072 9.72386 3.05715C9.97391 2.8071 10.313 2.66663 10.6667 2.66663H26.6667C27.0203 2.66663 27.3594 2.8071 27.6095 3.05715C27.8595 3.3072 28 3.64634 28 3.99996V22.6666C28 23.0202 27.8595 23.3594 27.6095 23.6094C27.3594 23.8595 27.0203 24 26.6667 24H22.6667ZM6.67067 10.6666L6.66667 26.6666H20V10.6666H6.67067ZM9.33333 21.3333H15.3333C15.5101 21.3333 15.6797 21.2631 15.8047 21.138C15.9298 21.013 16 20.8434 16 20.6666C16 20.4898 15.9298 20.3202 15.8047 20.1952C15.6797 20.0702 15.5101 20 15.3333 20H11.3333C10.4493 20 9.60143 19.6488 8.97631 19.0236C8.35119 18.3985 8 17.5507 8 16.6666C8 15.7826 8.35119 14.9347 8.97631 14.3096C9.60143 13.6845 10.4493 13.3333 11.3333 13.3333H12V12H14.6667V13.3333H17.3333V16H11.3333C11.1565 16 10.987 16.0702 10.8619 16.1952C10.7369 16.3202 10.6667 16.4898 10.6667 16.6666C10.6667 16.8434 10.7369 17.013 10.8619 17.138C10.987 17.2631 11.1565 17.3333 11.3333 17.3333H15.3333C16.2174 17.3333 17.0652 17.6845 17.6904 18.3096C18.3155 18.9347 18.6667 19.7826 18.6667 20.6666C18.6667 21.5507 18.3155 22.3985 17.6904 23.0236C17.0652 23.6488 16.2174 24 15.3333 24H14.6667V25.3333H12V24H9.33333V21.3333Z" fill="#C4C4C4"/>
</svg>
