<svg width="32" height="32" viewBox="0 0 32 32" fill="none" xmlns="http://www.w3.org/2000/svg">
<path d="M16 4C23.1894 4 29.1707 9.17333 30.4254 16C29.172 22.8267 23.1894 28 16 28C8.81071 28 2.82937 22.8267 1.57471 16C2.82804 9.17333 8.81071 4 16 4ZM16 25.3333C18.7193 25.3327 21.3579 24.4091 23.4838 22.7136C25.6098 21.018 27.0972 18.651 27.7027 16C27.095 13.3511 25.6066 10.9867 23.4809 9.29337C21.3551 7.60006 18.7178 6.67804 16 6.67804C13.2823 6.67804 10.645 7.60006 8.51921 9.29337C6.39346 10.9867 4.90506 13.3511 4.29737 16C4.90284 18.651 6.39027 21.018 8.51623 22.7136C10.6422 24.4091 13.2807 25.3327 16 25.3333ZM16 22C14.4087 22 12.8826 21.3679 11.7574 20.2426C10.6322 19.1174 10 17.5913 10 16C10 14.4087 10.6322 12.8826 11.7574 11.7574C12.8826 10.6321 14.4087 10 16 10C17.5913 10 19.1175 10.6321 20.2427 11.7574C21.3679 12.8826 22 14.4087 22 16C22 17.5913 21.3679 19.1174 20.2427 20.2426C19.1175 21.3679 17.5913 22 16 22ZM16 19.3333C16.8841 19.3333 17.7319 18.9821 18.3571 18.357C18.9822 17.7319 19.3334 16.8841 19.3334 16C19.3334 15.1159 18.9822 14.2681 18.3571 13.643C17.7319 13.0179 16.8841 12.6667 16 12.6667C15.116 12.6667 14.2681 13.0179 13.643 13.643C13.0179 14.2681 12.6667 15.1159 12.6667 16C12.6667 16.8841 13.0179 17.7319 13.643 18.357C14.2681 18.9821 15.116 19.3333 16 19.3333Z" fill="#C4C4C4"/>
</svg>
