<svg width="38" height="48" viewBox="0 0 38 48" fill="none" xmlns="http://www.w3.org/2000/svg">
<g opacity="0.2" clip-path="url(#clip0_397:5031)">
<path d="M19.9996 47L8.51963 38.1599C6.12574 35.8361 4.22565 33.0529 2.93345 29.977C1.64125 26.9012 0.98354 23.5962 0.999612 20.26V6.26C0.968369 5.83836 1.0715 5.41768 1.29429 5.05834C1.51708 4.69901 1.84805 4.41951 2.2396 4.26C7.49664 1.9986 13.1636 0.845511 18.8863 0.87304C24.6091 0.90057 30.2646 2.10804 35.4996 4.41992C35.9397 4.53329 36.328 4.7932 36.6007 5.15673C36.8733 5.52026 37.014 5.96573 36.9996 6.41992V20.8999C37.0264 27.22 34.645 33.313 30.3397 37.9399L19.9996 47Z" stroke="black" stroke-width="2" stroke-linecap="round" stroke-linejoin="round"/>
<path d="M27 14.96L19 26.96L13 20.96" stroke="black" stroke-width="2" stroke-linecap="round" stroke-linejoin="round"/>
</g>
<defs>
<clipPath id="clip0_397:5031">
<rect width="38" height="48" fill="white"/>
</clipPath>
</defs>
</svg>
