<svg width="32" height="32" viewBox="0 0 32 32" fill="none" xmlns="http://www.w3.org/2000/svg">
<path d="M18.6666 19.0027V21.7893C17.4598 21.3627 16.1683 21.2318 14.9005 21.4077C13.6326 21.5836 12.4255 22.0612 11.3805 22.8003C10.3355 23.5394 9.48304 24.5184 8.8948 25.6552C8.30656 26.792 7.99967 28.0534 7.99992 29.3333L5.33325 29.332C5.33284 27.7039 5.70515 26.0972 6.42165 24.6352C7.13815 23.1732 8.17983 21.8946 9.46687 20.8974C10.7539 19.9002 12.2522 19.2108 13.8468 18.8822C15.4414 18.5535 17.0901 18.5943 18.6666 19.0013V19.0027ZM15.9999 17.3333C11.5799 17.3333 7.99992 13.7533 7.99992 9.33334C7.99992 4.91334 11.5799 1.33334 15.9999 1.33334C20.4199 1.33334 23.9999 4.91334 23.9999 9.33334C23.9999 13.7533 20.4199 17.3333 15.9999 17.3333ZM15.9999 14.6667C18.9466 14.6667 21.3333 12.28 21.3333 9.33334C21.3333 6.38667 18.9466 4 15.9999 4C13.0533 4 10.6666 6.38667 10.6666 9.33334C10.6666 12.28 13.0533 14.6667 15.9999 14.6667ZM23.7239 26.552L28.4372 21.8387L30.3239 23.724L23.7239 30.324L19.0093 25.6093L20.8959 23.724L23.7226 26.552H23.7239Z" fill="black"/>
</svg>
